<svg width="280" height="52" viewBox="0 0 280 52" fill="none" xmlns="http://www.w3.org/2000/svg">
<path d="M150.438 0H275.025C277.573 0 279.5 2.30835 279.044 4.81605L272.359 41.5834C272.006 43.5259 270.314 44.9378 268.34 44.9378H141.021L150.438 0Z" fill="#0F0F0F"/>
<path d="M157.108 32.6384V14.8119H164.472C165.807 14.8119 166.959 15.073 167.928 15.5952C168.903 16.1117 169.654 16.8342 170.182 17.7626C170.71 18.6853 170.974 19.7588 170.974 20.9833C170.974 22.2135 170.705 23.2899 170.165 24.2126C169.631 25.1294 168.868 25.8403 167.876 26.3452C166.883 26.85 165.705 27.1024 164.342 27.1024H159.798V23.7077H163.541C164.191 23.7077 164.733 23.5946 165.169 23.3683C165.61 23.1419 165.943 22.8257 166.17 22.4195C166.396 22.0075 166.509 21.5287 166.509 20.9833C166.509 20.432 166.396 19.9561 166.17 19.5557C165.943 19.1495 165.61 18.8362 165.169 18.6157C164.728 18.3952 164.185 18.2849 163.541 18.2849H161.417V32.6384H157.108ZM173.098 32.6384V19.2685H177.233V21.7057H177.372C177.616 20.8237 178.013 20.168 178.565 19.7385C179.116 19.3033 179.757 19.0857 180.488 19.0857C180.686 19.0857 180.889 19.1002 181.098 19.1292C181.307 19.1524 181.501 19.1902 181.681 19.2424V22.9417C181.478 22.8721 181.211 22.817 180.88 22.7764C180.555 22.7357 180.265 22.7154 180.01 22.7154C179.505 22.7154 179.049 22.8286 178.643 23.0549C178.243 23.2754 177.926 23.5859 177.694 23.9863C177.468 24.3809 177.355 24.8451 177.355 25.379V32.6384H173.098ZM188.962 32.8909C187.558 32.8909 186.351 32.6036 185.341 32.0291C184.337 31.4488 183.562 30.6422 183.017 29.6093C182.477 28.5706 182.207 27.3665 182.207 25.997C182.207 24.6217 182.477 23.4176 183.017 22.3847C183.562 21.3459 184.337 20.5393 185.341 19.9648C186.351 19.3846 187.558 19.0944 188.962 19.0944C190.366 19.0944 191.57 19.3846 192.574 19.9648C193.584 20.5393 194.359 21.3459 194.898 22.3847C195.444 23.4176 195.717 24.6217 195.717 25.997C195.717 27.3665 195.444 28.5706 194.898 29.6093C194.359 30.6422 193.584 31.4488 192.574 32.0291C191.57 32.6036 190.366 32.8909 188.962 32.8909ZM188.988 29.6789C189.499 29.6789 189.931 29.5223 190.285 29.2089C190.639 28.8955 190.909 28.4603 191.095 27.9032C191.286 27.3462 191.382 26.702 191.382 25.9709C191.382 25.2281 191.286 24.5782 191.095 24.0211C190.909 23.464 190.639 23.0288 190.285 22.7154C189.931 22.4021 189.499 22.2454 188.988 22.2454C188.46 22.2454 188.013 22.4021 187.648 22.7154C187.288 23.0288 187.012 23.464 186.821 24.0211C186.635 24.5782 186.542 25.2281 186.542 25.9709C186.542 26.702 186.635 27.3462 186.821 27.9032C187.012 28.4603 187.288 28.8955 187.648 29.2089C188.013 29.5223 188.46 29.6789 188.988 29.6789ZM197.897 19.2685H202.154V33.1955C202.154 34.2981 201.927 35.1743 201.475 35.8242C201.028 36.4742 200.395 36.9413 199.577 37.2256C198.759 37.51 197.793 37.6522 196.678 37.6522C196.528 37.6522 196.385 37.6493 196.252 37.6434C196.118 37.6376 195.973 37.6318 195.817 37.626V34.3967C195.921 34.4083 196.014 34.417 196.095 34.4228C196.176 34.4286 196.258 34.4315 196.339 34.4315C196.925 34.4315 197.331 34.3213 197.558 34.1008C197.784 33.8861 197.897 33.5553 197.897 33.1085V19.2685ZM200.021 17.7104C199.423 17.7104 198.91 17.5131 198.48 17.1185C198.051 16.7181 197.836 16.2365 197.836 15.6736C197.836 15.1165 198.051 14.6407 198.48 14.2461C198.91 13.8457 199.423 13.6455 200.021 13.6455C200.624 13.6455 201.138 13.8457 201.562 14.2461C201.991 14.6407 202.206 15.1165 202.206 15.6736C202.206 16.2365 201.991 16.7181 201.562 17.1185C201.138 17.5131 200.624 17.7104 200.021 17.7104ZM211.112 32.8909C209.714 32.8909 208.507 32.6152 207.491 32.0639C206.482 31.5069 205.704 30.7148 205.159 29.6876C204.619 28.6547 204.349 27.4274 204.349 26.0057C204.349 24.6246 204.622 23.4176 205.167 22.3847C205.713 21.3459 206.482 20.5393 207.474 19.9648C208.466 19.3846 209.636 19.0944 210.982 19.0944C211.934 19.0944 212.804 19.2424 213.593 19.5383C214.382 19.8343 215.064 20.2724 215.639 20.8527C216.213 21.433 216.66 22.1496 216.979 23.0027C217.298 23.8499 217.458 24.8219 217.458 25.9186V26.9806H205.838V24.5085H213.497C213.492 24.0559 213.384 23.6526 213.175 23.2986C212.967 22.9446 212.679 22.669 212.314 22.4717C211.954 22.2686 211.539 22.1671 211.069 22.1671C210.593 22.1671 210.167 22.2744 209.789 22.4891C209.412 22.698 209.113 22.9853 208.893 23.3509C208.672 23.7106 208.556 24.1197 208.545 24.5782V27.0937C208.545 27.6392 208.652 28.118 208.867 28.53C209.081 28.9362 209.386 29.2524 209.781 29.4787C210.175 29.7051 210.645 29.8182 211.191 29.8182C211.568 29.8182 211.91 29.766 212.218 29.6615C212.526 29.5571 212.79 29.4033 213.01 29.2002C213.231 28.9971 213.396 28.7476 213.506 28.4516L217.414 28.5648C217.252 29.441 216.895 30.2041 216.344 30.854C215.798 31.4982 215.082 32.0001 214.194 32.3599C213.306 32.7139 212.279 32.8909 211.112 32.8909ZM225.873 32.8909C224.463 32.8909 223.253 32.6007 222.243 32.0204C221.239 31.4401 220.468 30.6335 219.928 29.6006C219.388 28.5619 219.118 27.3607 219.118 25.997C219.118 24.6275 219.388 23.4263 219.928 22.3934C220.473 21.3546 221.248 20.5451 222.252 19.9648C223.262 19.3846 224.466 19.0944 225.864 19.0944C227.1 19.0944 228.177 19.3178 229.094 19.7646C230.016 20.2115 230.736 20.844 231.252 21.6622C231.775 22.4746 232.05 23.4292 232.079 24.5259H228.101C228.02 23.8412 227.788 23.3044 227.405 22.9156C227.028 22.5268 226.534 22.3324 225.925 22.3324C225.432 22.3324 225 22.4717 224.628 22.7503C224.257 23.023 223.967 23.4292 223.758 23.9689C223.555 24.5027 223.453 25.1643 223.453 25.9535C223.453 26.7427 223.555 27.41 223.758 27.9555C223.967 28.4951 224.257 28.9042 224.628 29.1828C225 29.4555 225.432 29.5919 225.925 29.5919C226.32 29.5919 226.668 29.5078 226.97 29.3395C227.277 29.1712 227.53 28.9246 227.727 28.5996C227.924 28.2688 228.049 27.8684 228.101 27.3984H232.079C232.039 28.5009 231.763 29.4642 231.252 30.2882C230.747 31.1123 230.037 31.7535 229.12 32.2119C228.209 32.6645 227.126 32.8909 225.873 32.8909ZM241.804 19.2685V22.4021H233.37V19.2685H241.804ZM235.137 16.0653H239.393V28.4342C239.393 28.6953 239.434 28.9071 239.515 29.0696C239.602 29.2263 239.727 29.3395 239.889 29.4091C240.052 29.4729 240.246 29.5049 240.472 29.5049C240.635 29.5049 240.806 29.4903 240.986 29.4613C241.172 29.4265 241.311 29.3975 241.404 29.3743L242.048 32.4469C241.845 32.505 241.558 32.5775 241.186 32.6645C240.821 32.7516 240.382 32.8067 239.872 32.8299C238.874 32.8763 238.018 32.7603 237.304 32.4817C236.596 32.1974 236.053 31.7564 235.676 31.1587C235.305 30.561 235.125 29.8095 235.137 28.9042V16.0653ZM255.481 23.3509L251.573 23.4553C251.532 23.1768 251.422 22.9301 251.242 22.7154C251.062 22.4949 250.827 22.3237 250.537 22.2019C250.252 22.0742 249.922 22.0104 249.545 22.0104C249.051 22.0104 248.631 22.109 248.282 22.3063C247.94 22.5036 247.772 22.7706 247.778 23.1071C247.772 23.3683 247.876 23.5946 248.091 23.7861C248.311 23.9776 248.703 24.1313 249.266 24.2474L251.842 24.7348C253.177 24.9902 254.169 25.4138 254.819 26.0057C255.475 26.5976 255.806 27.381 255.812 28.3559C255.806 29.2727 255.533 30.0706 254.993 30.7496C254.46 31.4285 253.728 31.9566 252.8 32.3338C251.871 32.7052 250.81 32.8909 249.614 32.8909C247.705 32.8909 246.199 32.4992 245.097 31.7158C244 30.9266 243.373 29.8704 243.216 28.5474L247.421 28.4429C247.513 28.9304 247.754 29.3017 248.143 29.5571C248.532 29.8124 249.028 29.9401 249.632 29.9401C250.177 29.9401 250.621 29.8385 250.963 29.6354C251.306 29.4323 251.48 29.1625 251.486 28.8259C251.48 28.5242 251.346 28.2833 251.085 28.1034C250.824 27.9178 250.415 27.7727 249.858 27.6682L247.525 27.2243C246.185 26.9806 245.187 26.5309 244.531 25.8751C243.875 25.2136 243.55 24.3722 243.556 23.3509C243.55 22.4572 243.788 21.6941 244.27 21.0616C244.751 20.4233 245.436 19.9358 246.324 19.5993C247.212 19.2627 248.259 19.0944 249.466 19.0944C251.277 19.0944 252.704 19.4745 253.749 20.2347C254.793 20.9891 255.371 22.0278 255.481 23.3509Z" fill="white"/>
<path d="M9.73462 3.1653C10.1629 1.31234 11.8131 0 13.7149 0H153.277L142.891 44.9378H5.21711C2.58938 44.9378 0.645049 42.4928 1.23678 39.9326L9.73462 3.1653Z" fill="#FF5900"/>
<path d="M38.0361 21.2705H33.6839C33.6259 20.8237 33.5069 20.4204 33.327 20.0606C33.1472 19.7008 32.9092 19.3933 32.6133 19.1379C32.3173 18.8826 31.9663 18.6882 31.5601 18.5547C31.1597 18.4155 30.7157 18.3458 30.2283 18.3458C29.3637 18.3458 28.618 18.5576 27.9913 18.9813C27.3703 19.4049 26.8916 20.0171 26.555 20.8179C26.2243 21.6187 26.0589 22.5878 26.0589 23.7251C26.0589 24.9089 26.2272 25.9012 26.5637 26.702C26.9061 27.497 27.3849 28.0976 28 28.5038C28.6209 28.9042 29.3549 29.1044 30.2022 29.1044C30.678 29.1044 31.1103 29.0435 31.4991 28.9217C31.8937 28.7998 32.239 28.6228 32.5349 28.3907C32.8367 28.1528 33.0833 27.8655 33.2748 27.529C33.4721 27.1866 33.6085 26.8007 33.6839 26.3713L38.0361 26.3974C37.9607 27.1866 37.7315 27.9642 37.3485 28.7302C36.9713 29.4961 36.4519 30.1954 35.7904 30.8279C35.1289 31.4546 34.3222 31.9537 33.3706 32.3251C32.4247 32.6965 31.3395 32.8822 30.1151 32.8822C28.5019 32.8822 27.057 32.5282 25.7803 31.8202C24.5095 31.1065 23.5056 30.0677 22.7686 28.704C22.0317 27.3404 21.6632 25.6807 21.6632 23.7251C21.6632 21.7638 22.0375 20.1012 22.786 18.7375C23.5346 17.3738 24.5472 16.338 25.8239 15.6301C27.1005 14.9221 28.5309 14.5681 30.1151 14.5681C31.1945 14.5681 32.1926 14.719 33.1094 15.0208C34.0263 15.3167 34.8329 15.7519 35.5293 16.3264C36.2256 16.8951 36.7914 17.5944 37.2266 18.4242C37.6618 19.254 37.9317 20.2028 38.0361 21.2705ZM40.5016 32.6384V19.2685H44.7581V32.6384H40.5016ZM42.6342 17.7104C42.0365 17.7104 41.5229 17.5131 41.0935 17.1185C40.6641 16.7181 40.4494 16.2365 40.4494 15.6736C40.4494 15.1165 40.6641 14.6407 41.0935 14.2461C41.5229 13.8457 42.0365 13.6455 42.6342 13.6455C43.2377 13.6455 43.7513 13.8457 44.1749 14.2461C44.6043 14.6407 44.819 15.1165 44.819 15.6736C44.819 16.2365 44.6043 16.7181 44.1749 17.1185C43.7513 17.5131 43.2377 17.7104 42.6342 17.7104ZM55.014 19.2685V22.4021H46.5795V19.2685H55.014ZM48.3465 16.0653H52.6029V28.4342C52.6029 28.6953 52.6435 28.9071 52.7248 29.0696C52.8118 29.2263 52.9366 29.3395 53.099 29.4091C53.2615 29.4729 53.4559 29.5049 53.6822 29.5049C53.8447 29.5049 54.0159 29.4903 54.1958 29.4613C54.3815 29.4265 54.5208 29.3975 54.6136 29.3743L55.2577 32.4469C55.0546 32.505 54.7674 32.5775 54.396 32.6645C54.0304 32.7516 53.5923 32.8067 53.0816 32.8299C52.0835 32.8763 51.2276 32.7603 50.5138 32.4817C49.8059 32.1974 49.2633 31.7564 48.8861 31.1587C48.5147 30.561 48.3349 29.8095 48.3465 28.9042V16.0653ZM60.9548 32.8647C60.1017 32.8647 59.3444 32.7226 58.6829 32.4382C58.0272 32.1481 57.5078 31.7129 57.1248 31.1326C56.7476 30.5465 56.559 29.8124 56.559 28.9304C56.559 28.1876 56.6896 27.5609 56.9507 27.0502C57.2119 26.5396 57.5717 26.1246 58.0301 25.8055C58.4885 25.4863 59.0166 25.2455 59.6143 25.083C60.212 24.9147 60.8503 24.8016 61.5292 24.7436C62.2894 24.6739 62.9016 24.6014 63.3659 24.5259C63.8301 24.4447 64.1667 24.3315 64.3756 24.1865C64.5903 24.0356 64.6976 23.8238 64.6976 23.5511V23.5075C64.6976 23.0607 64.5439 22.7154 64.2363 22.4717C63.9288 22.228 63.5138 22.1061 62.9916 22.1061C62.4287 22.1061 61.9761 22.228 61.6337 22.4717C61.2913 22.7154 61.0737 23.052 60.9809 23.4814L57.0552 23.3421C57.1713 22.5297 57.4701 21.8044 57.9517 21.1661C58.4392 20.5219 59.1065 20.0171 59.9538 19.6515C60.8068 19.2801 61.831 19.0944 63.0264 19.0944C63.8794 19.0944 64.6657 19.196 65.3853 19.3991C66.1048 19.5964 66.7316 19.8865 67.2654 20.2695C67.7993 20.6467 68.2113 21.1109 68.5015 21.6622C68.7974 22.2135 68.9454 22.8431 68.9454 23.5511V32.6384H64.9414V30.7757H64.8369C64.599 31.2283 64.2943 31.6113 63.9229 31.9247C63.5574 32.238 63.125 32.473 62.626 32.6297C62.1327 32.7864 61.5757 32.8647 60.9548 32.8647ZM62.2691 30.0793C62.7275 30.0793 63.1396 29.9865 63.5051 29.8008C63.8765 29.6151 64.1725 29.3598 64.393 29.0348C64.6135 28.704 64.7238 28.3211 64.7238 27.8858V26.615C64.6019 26.6788 64.4539 26.7369 64.2798 26.7891C64.1115 26.8413 63.9259 26.8906 63.7227 26.9371C63.5196 26.9835 63.3107 27.0241 63.096 27.0589C62.8813 27.0937 62.6753 27.1257 62.478 27.1547C62.0776 27.2185 61.7352 27.3171 61.4509 27.4506C61.1724 27.5841 60.9577 27.7582 60.8068 27.9729C60.6617 28.1818 60.5892 28.4313 60.5892 28.7215C60.5892 29.1625 60.7458 29.499 61.0592 29.7312C61.3784 29.9633 61.7817 30.0793 62.2691 30.0793ZM76.4311 32.8299C75.4446 32.8299 74.5481 32.5746 73.7415 32.0639C72.9349 31.5533 72.2908 30.7873 71.8091 29.766C71.3275 28.7447 71.0867 27.4767 71.0867 25.9622C71.0867 24.3896 71.3362 23.0955 71.8352 22.08C72.3343 21.0645 72.9871 20.313 73.7937 19.8256C74.6061 19.3381 75.4795 19.0944 76.4137 19.0944C77.1159 19.0944 77.7165 19.2163 78.2155 19.46C78.7146 19.6979 79.1266 20.0055 79.4516 20.3827C79.7765 20.7598 80.0232 21.1515 80.1914 21.5577H80.2785V14.8119H84.5349V32.6384H80.322V30.471H80.1914C80.0115 30.883 79.7562 31.2689 79.4255 31.6287C79.0947 31.9885 78.6798 32.2786 78.1807 32.4992C77.6875 32.7197 77.1043 32.8299 76.4311 32.8299ZM77.9109 29.5136C78.4273 29.5136 78.8684 29.3685 79.234 29.0783C79.5995 28.7824 79.881 28.3675 80.0783 27.8336C80.2756 27.2997 80.3742 26.673 80.3742 25.9535C80.3742 25.2223 80.2756 24.5927 80.0783 24.0646C79.8868 23.5365 79.6053 23.1303 79.234 22.846C78.8684 22.5617 78.4273 22.4195 77.9109 22.4195C77.3828 22.4195 76.936 22.5646 76.5704 22.8547C76.2048 23.1448 75.9263 23.554 75.7348 24.082C75.5491 24.6101 75.4563 25.2339 75.4563 25.9535C75.4563 26.673 75.552 27.2997 75.7435 27.8336C75.935 28.3675 76.2106 28.7824 76.5704 29.0783C76.936 29.3685 77.3828 29.5136 77.9109 29.5136ZM93.4765 32.8909C92.078 32.8909 90.871 32.6152 89.8555 32.0639C88.8458 31.5069 88.0682 30.7148 87.5227 29.6876C86.983 28.6547 86.7132 27.4274 86.7132 26.0057C86.7132 24.6246 86.9859 23.4176 87.5314 22.3847C88.0769 21.3459 88.8458 20.5393 89.8381 19.9648C90.8304 19.3846 91.9997 19.0944 93.3459 19.0944C94.2976 19.0944 95.168 19.2424 95.9572 19.5383C96.7464 19.8343 97.4283 20.2724 98.0028 20.8527C98.5773 21.433 99.0241 22.1496 99.3432 23.0027C99.6624 23.8499 99.822 24.8219 99.822 25.9186V26.9806H88.2016V24.5085H95.8615C95.8557 24.0559 95.7483 23.6526 95.5394 23.2986C95.3305 22.9446 95.0433 22.669 94.6777 22.4717C94.3179 22.2686 93.903 22.1671 93.433 22.1671C92.9571 22.1671 92.5306 22.2744 92.1534 22.4891C91.7762 22.698 91.4774 22.9853 91.2569 23.3509C91.0364 23.7106 90.9203 24.1197 90.9087 24.5782V27.0937C90.9087 27.6392 91.0161 28.118 91.2308 28.53C91.4455 28.9362 91.7501 29.2524 92.1447 29.4787C92.5393 29.7051 93.0094 29.8182 93.5548 29.8182C93.932 29.8182 94.2744 29.766 94.582 29.6615C94.8895 29.5571 95.1535 29.4033 95.3741 29.2002C95.5946 28.9971 95.7599 28.7476 95.8702 28.4516L99.7785 28.5648C99.616 29.441 99.2591 30.2041 98.7078 30.854C98.1624 31.4982 97.4457 32.0001 96.5578 32.3599C95.67 32.7139 94.6429 32.8909 93.4765 32.8909ZM106.252 14.8119V32.6384H101.996V14.8119H106.252Z" fill="white"/>
<path d="M122.678 23.7861L122.147 27.0676H113.904L114.435 23.7861H122.678ZM124.221 32.6384L126.449 19.2685H130.706L128.477 32.6384H124.221ZM128.878 17.7017C128.274 17.7017 127.784 17.5015 127.407 17.1011C127.03 16.7007 126.882 16.222 126.963 15.6649C127.044 15.102 127.328 14.6233 127.816 14.2287C128.303 13.8341 128.846 13.6368 129.444 13.6368C130.047 13.6368 130.532 13.8341 130.897 14.2287C131.269 14.6233 131.414 15.102 131.332 15.6649C131.263 16.222 130.984 16.7007 130.497 17.1011C130.015 17.5015 129.475 17.7017 128.878 17.7017ZM141.205 23.7861L140.674 27.0676H132.431L132.962 23.7861H141.205Z" fill="white"/>
<rect x="0.0799561" y="46.9805" width="271.67" height="4.08526" rx="2.04263" fill="#0F0F0F"/>
</svg>
