<svg width="25" height="25" viewBox="0 0 25 25" fill="none" xmlns="http://www.w3.org/2000/svg">
<path d="M19.6633 11.1392C19.6633 10.4892 19.6049 9.86422 19.4966 9.26422H10.8633V12.8101H15.7966C15.5841 13.9559 14.9383 14.9267 13.9674 15.5767V17.8767H16.9299C18.6633 16.2809 19.6633 13.9309 19.6633 11.1392Z" fill="#4285F4"/>
<path d="M10.8635 20.0976C13.3385 20.0976 15.4135 19.2768 16.9302 17.8768L13.9677 15.5768C13.1469 16.1268 12.0969 16.4518 10.8635 16.4518C8.47604 16.4518 6.45521 14.8393 5.73437 12.6726H2.67188V15.0476C4.18021 18.0434 7.28021 20.0976 10.8635 20.0976Z" fill="#34A853"/>
<path d="M5.73477 12.6725C5.55143 12.1225 5.44727 11.535 5.44727 10.9309C5.44727 10.3267 5.55143 9.73921 5.73477 9.18921V6.81421H2.67227C2.0306 8.09159 1.6967 9.50139 1.69727 10.9309C1.69727 12.41 2.05143 13.81 2.67227 15.0475L5.73477 12.6725Z" fill="#FBBC05"/>
<path d="M10.8635 5.41005C12.2094 5.41005 13.4177 5.87255 14.3677 6.78089L16.9969 4.15172C15.4094 2.67255 13.3344 1.76422 10.8635 1.76422C7.28021 1.76422 4.18021 3.81839 2.67188 6.81422L5.73437 9.18922C6.45521 7.02255 8.47604 5.41005 10.8635 5.41005Z" fill="#EA4335"/>
</svg>
