<svg width="129" height="24" viewBox="0 0 129 24" fill="none" xmlns="http://www.w3.org/2000/svg">
<path d="M68.9242 0H126.035C127.204 0 128.087 1.05816 127.878 2.2077L124.813 19.062C124.652 19.9525 123.876 20.5997 122.971 20.5997H64.6074L68.9242 0Z" fill="#0F0F0F"/>
<path d="M71.9818 15.0414V6.86959H75.3574C75.9692 6.86959 76.4972 6.98929 76.9415 7.2287C77.3884 7.46545 77.7329 7.79663 77.9749 8.22224C78.217 8.6452 78.338 9.13731 78.338 9.69859C78.338 10.2625 78.2143 10.756 77.9669 11.1789C77.7222 11.5992 77.3724 11.9251 76.9175 12.1565C76.4627 12.3879 75.9227 12.5037 75.2975 12.5037H73.2147V10.9475H74.9305C75.2284 10.9475 75.4771 10.8956 75.6766 10.7919C75.8788 10.6881 76.0317 10.5432 76.1355 10.357C76.2392 10.1681 76.2911 9.94864 76.2911 9.69859C76.2911 9.44588 76.2392 9.22775 76.1355 9.04421C76.0317 8.858 75.8788 8.71436 75.6766 8.61328C75.4744 8.51219 75.2257 8.46165 74.9305 8.46165H73.9569V15.0414H71.9818ZM79.3116 15.0414V8.91253H81.2069V10.0298H81.2708C81.3825 9.62544 81.5647 9.32485 81.8174 9.128C82.0701 8.9285 82.3641 8.82874 82.6992 8.82874C82.7897 8.82874 82.8828 8.83539 82.9785 8.84869C83.0743 8.85933 83.1634 8.87662 83.2459 8.90056V10.5964C83.1528 10.5644 83.0304 10.5392 82.8788 10.5206C82.7298 10.5019 82.5968 10.4926 82.4798 10.4926C82.2484 10.4926 82.0395 10.5445 81.8533 10.6482C81.6698 10.7493 81.5248 10.8916 81.4184 11.0752C81.3147 11.2561 81.2628 11.4689 81.2628 11.7136V15.0414H79.3116ZM86.5836 15.1571C85.9399 15.1571 85.3866 15.0254 84.9237 14.7621C84.4635 14.4961 84.1084 14.1263 83.8584 13.6528C83.611 13.1767 83.4873 12.6247 83.4873 11.9969C83.4873 11.3665 83.611 10.8145 83.8584 10.341C84.1084 9.86485 84.4635 9.49509 84.9237 9.23174C85.3866 8.96574 85.9399 8.83273 86.5836 8.83273C87.2274 8.83273 87.7793 8.96574 88.2395 9.23174C88.7024 9.49509 89.0575 9.86485 89.3049 10.341C89.5549 10.8145 89.68 11.3665 89.68 11.9969C89.68 12.6247 89.5549 13.1767 89.3049 13.6528C89.0575 14.1263 88.7024 14.4961 88.2395 14.7621C87.7793 15.0254 87.2274 15.1571 86.5836 15.1571ZM86.5956 13.6847C86.8297 13.6847 87.0279 13.6129 87.1901 13.4693C87.3524 13.3256 87.4761 13.1261 87.5612 12.8707C87.649 12.6154 87.6929 12.3201 87.6929 11.9849C87.6929 11.6444 87.649 11.3465 87.5612 11.0911C87.4761 10.8358 87.3524 10.6363 87.1901 10.4926C87.0279 10.349 86.8297 10.2772 86.5956 10.2772C86.3535 10.2772 86.1487 10.349 85.9811 10.4926C85.8162 10.6363 85.6898 10.8358 85.6021 11.0911C85.5169 11.3465 85.4744 11.6444 85.4744 11.9849C85.4744 12.3201 85.5169 12.6154 85.6021 12.8707C85.6898 13.1261 85.8162 13.3256 85.9811 13.4693C86.1487 13.6129 86.3535 13.6847 86.5956 13.6847ZM90.6795 8.91253H92.6307V15.2967C92.6307 15.8022 92.5269 16.2038 92.3194 16.5018C92.1146 16.7997 91.8247 17.0138 91.4496 17.1442C91.0745 17.2745 90.6316 17.3397 90.1209 17.3397C90.0517 17.3397 89.9865 17.3384 89.9254 17.3357C89.8642 17.333 89.7977 17.3304 89.7259 17.3277V15.8474C89.7737 15.8527 89.8163 15.8567 89.8535 15.8594C89.8908 15.862 89.928 15.8633 89.9653 15.8633C90.2339 15.8633 90.4201 15.8128 90.5239 15.7117C90.6276 15.6133 90.6795 15.4617 90.6795 15.2568V8.91253ZM91.6531 8.1983C91.3791 8.1983 91.1437 8.10786 90.9468 7.92697C90.75 7.74343 90.6516 7.52264 90.6516 7.26461C90.6516 7.00924 90.75 6.79112 90.9468 6.61023C91.1437 6.42668 91.3791 6.33491 91.6531 6.33491C91.9297 6.33491 92.1652 6.42668 92.3593 6.61023C92.5562 6.79112 92.6546 7.00924 92.6546 7.26461C92.6546 7.52264 92.5562 7.74343 92.3593 7.92697C92.1652 8.10786 91.9297 8.1983 91.6531 8.1983ZM96.7375 15.1571C96.0964 15.1571 95.5431 15.0307 95.0776 14.778C94.6148 14.5227 94.2583 14.1596 94.0083 13.6887C93.7609 13.2152 93.6372 12.6526 93.6372 12.0009C93.6372 11.3678 93.7622 10.8145 94.0123 10.341C94.2623 9.86485 94.6148 9.49509 95.0696 9.23174C95.5245 8.96574 96.0605 8.83273 96.6777 8.83273C97.1139 8.83273 97.5129 8.90056 97.8747 9.03623C98.2365 9.17189 98.549 9.37273 98.8124 9.63874C99.0757 9.90475 99.2806 10.2333 99.4269 10.6243C99.5732 11.0127 99.6463 11.4582 99.6463 11.961V12.4478H94.3195V11.3146H97.8308C97.8281 11.1071 97.7789 10.9222 97.6832 10.76C97.5874 10.5977 97.4557 10.4713 97.2882 10.3809C97.1232 10.2878 96.933 10.2412 96.7176 10.2412C96.4994 10.2412 96.3039 10.2905 96.131 10.3889C95.9581 10.4846 95.8211 10.6163 95.72 10.7839C95.6189 10.9488 95.5657 11.1364 95.5604 11.3465V12.4997C95.5604 12.7497 95.6096 12.9692 95.7081 13.158C95.8065 13.3442 95.9461 13.4892 96.127 13.593C96.3079 13.6967 96.5234 13.7486 96.7734 13.7486C96.9463 13.7486 97.1033 13.7246 97.2443 13.6767C97.3852 13.6289 97.5063 13.5584 97.6074 13.4653C97.7084 13.3722 97.7843 13.2578 97.8348 13.1221L99.6264 13.174C99.5519 13.5757 99.3883 13.9255 99.1356 14.2234C98.8855 14.5187 98.557 14.7488 98.15 14.9137C97.743 15.076 97.2722 15.1571 96.7375 15.1571ZM103.504 15.1571C102.857 15.1571 102.303 15.0241 101.84 14.7581C101.38 14.4921 101.026 14.1223 100.779 13.6488C100.531 13.1727 100.407 12.622 100.407 11.9969C100.407 11.3691 100.531 10.8185 100.779 10.345C101.029 9.86884 101.384 9.49775 101.844 9.23174C102.307 8.96574 102.859 8.83273 103.5 8.83273C104.066 8.83273 104.56 8.93515 104.98 9.13997C105.403 9.3448 105.733 9.63475 105.97 10.0098C106.209 10.3822 106.335 10.8198 106.349 11.3226H104.525C104.488 11.0087 104.382 10.7626 104.206 10.5844C104.033 10.4062 103.807 10.3171 103.528 10.3171C103.302 10.3171 103.103 10.3809 102.933 10.5086C102.763 10.6336 102.63 10.8198 102.534 11.0672C102.441 11.3119 102.395 11.6152 102.395 11.977C102.395 12.3387 102.441 12.6446 102.534 12.8947C102.63 13.1421 102.763 13.3296 102.933 13.4573C103.103 13.5823 103.302 13.6448 103.528 13.6448C103.709 13.6448 103.868 13.6063 104.007 13.5291C104.148 13.452 104.263 13.3389 104.354 13.19C104.444 13.0383 104.501 12.8548 104.525 12.6393H106.349C106.33 13.1447 106.204 13.5863 105.97 13.964C105.738 14.3418 105.412 14.6357 104.992 14.8459C104.574 15.0533 104.078 15.1571 103.504 15.1571ZM110.807 8.91253V10.349H106.94V8.91253H110.807ZM107.75 7.44417H109.701V13.1141C109.701 13.2338 109.72 13.3309 109.757 13.4054C109.797 13.4772 109.854 13.5291 109.929 13.561C110.003 13.5903 110.092 13.6049 110.196 13.6049C110.271 13.6049 110.349 13.5983 110.432 13.585C110.517 13.569 110.581 13.5557 110.623 13.5451L110.918 14.9536C110.825 14.9802 110.694 15.0134 110.523 15.0533C110.356 15.0932 110.155 15.1185 109.921 15.1292C109.463 15.1504 109.071 15.0972 108.744 14.9696C108.419 14.8392 108.171 14.637 107.998 14.3631C107.827 14.0891 107.745 13.7446 107.75 13.3296V7.44417ZM117.076 10.7839L115.285 10.8318C115.266 10.7041 115.215 10.591 115.133 10.4926C115.051 10.3915 114.943 10.3131 114.81 10.2572C114.679 10.1987 114.528 10.1694 114.355 10.1694C114.129 10.1694 113.936 10.2146 113.776 10.3051C113.619 10.3955 113.542 10.5179 113.545 10.6722C113.542 10.7919 113.59 10.8956 113.689 10.9834C113.79 11.0712 113.969 11.1417 114.227 11.1949L115.408 11.4183C116.02 11.5354 116.475 11.7296 116.773 12.0009C117.074 12.2722 117.225 12.6313 117.228 13.0782C117.225 13.4985 117.1 13.8643 116.853 14.1755C116.608 14.4867 116.273 14.7288 115.847 14.9017C115.422 15.072 114.935 15.1571 114.387 15.1571C113.512 15.1571 112.821 14.9775 112.316 14.6184C111.813 14.2566 111.526 13.7725 111.454 13.166L113.381 13.1181C113.424 13.3416 113.534 13.5118 113.713 13.6289C113.891 13.7459 114.118 13.8044 114.395 13.8044C114.645 13.8044 114.848 13.7579 115.005 13.6648C115.162 13.5717 115.242 13.448 115.245 13.2937C115.242 13.1554 115.181 13.045 115.061 12.9625C114.941 12.8774 114.754 12.8109 114.499 12.763L113.429 12.5595C112.815 12.4478 112.357 12.2416 112.057 11.941C111.756 11.6378 111.607 11.2521 111.61 10.7839C111.607 10.3743 111.716 10.0245 111.937 9.7345C112.158 9.44189 112.472 9.21845 112.879 9.06416C113.286 8.90987 113.766 8.83273 114.319 8.83273C115.149 8.83273 115.803 9.00697 116.282 9.35544C116.761 9.70125 117.026 10.1774 117.076 10.7839Z" fill="white"/>
<path d="M4.42574 1.45099C4.62206 0.601583 5.37855 0 6.25034 0H70.2263L65.4652 20.5997H2.35489C1.15033 20.5997 0.259041 19.4789 0.530295 18.3053L4.42574 1.45099Z" fill="#FF5900"/>
<path d="M17.2226 9.83026H15.2276C15.201 9.62544 15.1464 9.44056 15.064 9.27564C14.9815 9.11071 14.8725 8.96973 14.7368 8.85268C14.6011 8.73564 14.4402 8.64653 14.254 8.58534C14.0704 8.5215 13.8669 8.48958 13.6435 8.48958C13.2471 8.48958 12.9053 8.58667 12.618 8.78086C12.3334 8.97505 12.1139 9.25569 11.9597 9.62278C11.808 9.98987 11.7322 10.4341 11.7322 10.9555C11.7322 11.4981 11.8094 11.953 11.9637 12.3201C12.1206 12.6845 12.3401 12.9599 12.622 13.1461C12.9067 13.3296 13.2432 13.4214 13.6315 13.4214C13.8497 13.4214 14.0478 13.3935 14.2261 13.3376C14.4069 13.2817 14.5652 13.2006 14.7009 13.0942C14.8392 12.9851 14.9523 12.8535 15.04 12.6992C15.1305 12.5422 15.193 12.3653 15.2276 12.1685L17.2226 12.1805C17.1881 12.5422 17.083 12.8987 16.9074 13.2498C16.7345 13.6009 16.4964 13.9215 16.1932 14.2114C15.8899 14.4987 15.5202 14.7275 15.0839 14.8977C14.6503 15.068 14.1529 15.1531 13.5916 15.1531C12.8521 15.1531 12.1898 14.9908 11.6045 14.6663C11.022 14.3391 10.5618 13.863 10.224 13.2378C9.88613 12.6127 9.71721 11.8519 9.71721 10.9555C9.71721 10.0564 9.88879 9.29426 10.2319 8.66914C10.5751 8.04402 11.0393 7.56919 11.6245 7.24466C12.2097 6.92013 12.8654 6.75786 13.5916 6.75786C14.0864 6.75786 14.5439 6.82703 14.9642 6.96535C15.3845 7.10102 15.7543 7.30052 16.0735 7.56387C16.3927 7.82456 16.6521 8.1451 16.8516 8.52549C17.0511 8.90588 17.1748 9.34081 17.2226 9.83026ZM18.3528 15.0414V8.91253H20.304V15.0414H18.3528ZM19.3304 8.1983C19.0564 8.1983 18.821 8.10786 18.6242 7.92697C18.4273 7.74343 18.3289 7.52264 18.3289 7.26461C18.3289 7.00924 18.4273 6.79112 18.6242 6.61023C18.821 6.42668 19.0564 6.33491 19.3304 6.33491C19.6071 6.33491 19.8425 6.42668 20.0367 6.61023C20.2335 6.79112 20.332 7.00924 20.332 7.26461C20.332 7.52264 20.2335 7.74343 20.0367 7.92697C19.8425 8.10786 19.6071 8.1983 19.3304 8.1983ZM25.0054 8.91253V10.349H21.139V8.91253H25.0054ZM21.949 7.44417H23.9001V13.1141C23.9001 13.2338 23.9187 13.3309 23.956 13.4054C23.9959 13.4772 24.0531 13.5291 24.1276 13.561C24.202 13.5903 24.2912 13.6049 24.3949 13.6049C24.4694 13.6049 24.5479 13.5983 24.6303 13.585C24.7154 13.569 24.7793 13.5557 24.8218 13.5451L25.1171 14.9536C25.024 14.9802 24.8923 15.0134 24.7221 15.0533C24.5545 15.0932 24.3537 15.1185 24.1196 15.1292C23.662 15.1504 23.2697 15.0972 22.9425 14.9696C22.618 14.8392 22.3692 14.637 22.1963 14.3631C22.0261 14.0891 21.9436 13.7446 21.949 13.3296V7.44417ZM27.7287 15.1451C27.3376 15.1451 26.9905 15.0799 26.6872 14.9496C26.3866 14.8166 26.1486 14.6171 25.973 14.3511C25.8001 14.0824 25.7136 13.7459 25.7136 13.3416C25.7136 13.0011 25.7735 12.7138 25.8932 12.4797C26.0129 12.2456 26.1778 12.0554 26.388 11.9091C26.5981 11.7628 26.8402 11.6524 27.1142 11.5779C27.3882 11.5008 27.6808 11.4489 27.992 11.4223C28.3405 11.3904 28.6211 11.3572 28.8339 11.3226C29.0467 11.2853 29.201 11.2335 29.2968 11.167C29.3952 11.0978 29.4444 11.0007 29.4444 10.8757V10.8557C29.4444 10.6509 29.3739 10.4926 29.2329 10.3809C29.092 10.2692 28.9018 10.2133 28.6623 10.2133C28.4043 10.2133 28.1968 10.2692 28.0399 10.3809C27.8829 10.4926 27.7832 10.6469 27.7406 10.8438L25.9411 10.7799C25.9943 10.4075 26.1313 10.075 26.3521 9.78238C26.5755 9.48711 26.8814 9.25569 27.2698 9.0881C27.6608 8.91786 28.1303 8.83273 28.6783 8.83273C29.0693 8.83273 29.4298 8.87928 29.7596 8.97239C30.0895 9.06283 30.3768 9.19583 30.6215 9.3714C30.8662 9.54431 31.0551 9.75711 31.1881 10.0098C31.3238 10.2625 31.3916 10.5511 31.3916 10.8757V15.0414H29.5561V14.1875H29.5083C29.3992 14.395 29.2595 14.5705 29.0893 14.7142C28.9217 14.8578 28.7235 14.9656 28.4948 15.0374C28.2687 15.1092 28.0133 15.1451 27.7287 15.1451ZM28.3312 13.8683C28.5413 13.8683 28.7302 13.8257 28.8978 13.7406C29.068 13.6555 29.2037 13.5384 29.3048 13.3895C29.4058 13.2378 29.4564 13.0623 29.4564 12.8628V12.2802C29.4005 12.3095 29.3327 12.3361 29.2529 12.36C29.1757 12.3839 29.0906 12.4066 28.9975 12.4278C28.9044 12.4491 28.8087 12.4677 28.7102 12.4837C28.6118 12.4997 28.5174 12.5143 28.4269 12.5276C28.2434 12.5569 28.0864 12.6021 27.9561 12.6633C27.8284 12.7244 27.73 12.8042 27.6608 12.9027C27.5943 12.9984 27.5611 13.1128 27.5611 13.2458C27.5611 13.448 27.6329 13.6023 27.7765 13.7087C27.9228 13.8151 28.1077 13.8683 28.3312 13.8683ZM34.8231 15.1292C34.3709 15.1292 33.9599 15.0121 33.5902 14.778C33.2204 14.5439 32.9251 14.1928 32.7043 13.7246C32.4836 13.2565 32.3732 12.6752 32.3732 11.9809C32.3732 11.2601 32.4876 10.6669 32.7163 10.2013C32.9451 9.73583 33.2443 9.39135 33.6141 9.1679C33.9865 8.94446 34.3869 8.83273 34.8151 8.83273C35.137 8.83273 35.4123 8.88859 35.6411 9.00032C35.8699 9.10938 36.0587 9.25037 36.2077 9.42327C36.3566 9.59618 36.4697 9.77573 36.5468 9.96194H36.5867V6.86959H38.5379V15.0414H36.6067V14.0478H36.5468C36.4644 14.2367 36.3473 14.4136 36.1957 14.5785C36.0441 14.7434 35.8539 14.8764 35.6251 14.9775C35.399 15.0786 35.1317 15.1292 34.8231 15.1292ZM35.5014 13.6089C35.7382 13.6089 35.9403 13.5424 36.1079 13.4094C36.2755 13.2737 36.4045 13.0836 36.495 12.8388C36.5854 12.5941 36.6306 12.3068 36.6306 11.977C36.6306 11.6418 36.5854 11.3532 36.495 11.1111C36.4072 10.869 36.2782 10.6828 36.1079 10.5525C35.9403 10.4221 35.7382 10.357 35.5014 10.357C35.2594 10.357 35.0545 10.4235 34.8869 10.5565C34.7194 10.6895 34.5917 10.877 34.5039 11.1191C34.4188 11.3611 34.3762 11.6471 34.3762 11.977C34.3762 12.3068 34.4201 12.5941 34.5079 12.8388C34.5957 13.0836 34.722 13.2737 34.8869 13.4094C35.0545 13.5424 35.2594 13.6089 35.5014 13.6089ZM42.6368 15.1571C41.9957 15.1571 41.4424 15.0307 40.9769 14.778C40.514 14.5227 40.1576 14.1596 39.9075 13.6887C39.6601 13.2152 39.5364 12.6526 39.5364 12.0009C39.5364 11.3678 39.6615 10.8145 39.9115 10.341C40.1616 9.86485 40.514 9.49509 40.9689 9.23174C41.4238 8.96574 41.9598 8.83273 42.5769 8.83273C43.0132 8.83273 43.4122 8.90056 43.774 9.03623C44.1357 9.17189 44.4483 9.37273 44.7116 9.63874C44.975 9.90475 45.1798 10.2333 45.3261 10.6243C45.4724 11.0127 45.5456 11.4582 45.5456 11.961V12.4478H40.2188V11.3146H43.7301C43.7274 11.1071 43.6782 10.9222 43.5824 10.76C43.4867 10.5977 43.355 10.4713 43.1874 10.3809C43.0225 10.2878 42.8323 10.2412 42.6168 10.2412C42.3987 10.2412 42.2032 10.2905 42.0303 10.3889C41.8574 10.4846 41.7204 10.6163 41.6193 10.7839C41.5182 10.9488 41.465 11.1364 41.4597 11.3465V12.4997C41.4597 12.7497 41.5089 12.9692 41.6073 13.158C41.7057 13.3442 41.8454 13.4892 42.0263 13.593C42.2072 13.6967 42.4226 13.7486 42.6727 13.7486C42.8456 13.7486 43.0025 13.7246 43.1435 13.6767C43.2845 13.6289 43.4055 13.5584 43.5066 13.4653C43.6077 13.3722 43.6835 13.2578 43.7341 13.1221L45.5256 13.174C45.4511 13.5757 45.2876 13.9255 45.0348 14.2234C44.7848 14.5187 44.4563 14.7488 44.0493 14.9137C43.6423 15.076 43.1715 15.1571 42.6368 15.1571ZM48.4933 6.86959V15.0414H46.5421V6.86959H48.4933Z" fill="white"/>
<path d="M56.1994 10.9834L55.956 12.4877H52.1773L52.4207 10.9834H56.1994ZM56.9066 15.0414L57.9281 8.91253H59.8793L58.8578 15.0414H56.9066ZM59.0414 8.19431C58.7647 8.19431 58.5399 8.10254 58.367 7.91899C58.1941 7.73545 58.1263 7.51599 58.1635 7.26062C58.2008 7.00259 58.3311 6.78314 58.5546 6.60225C58.778 6.42136 59.0267 6.33092 59.3007 6.33092C59.5774 6.33092 59.7995 6.42136 59.9671 6.60225C60.1373 6.78314 60.2038 7.00259 60.1666 7.26062C60.1347 7.51599 60.007 7.73545 59.7835 7.91899C59.5627 8.10254 59.3154 8.19431 59.0414 8.19431ZM64.6924 10.9834L64.449 12.4877H60.6703L60.9137 10.9834H64.6924Z" fill="white"/>
<rect y="21.5361" width="124.535" height="1.8727" rx="0.93635" fill="#0F0F0F"/>
</svg>
