<svg width="174" height="40" viewBox="0 0 174 40" fill="none" xmlns="http://www.w3.org/2000/svg">
<g clip-path="url(#clip0_756_10733)">
<path d="M37.203 21.0007C37.2376 20.3345 37.2376 19.667 37.203 19.0007H-0.746C-0.754001 19.1667 -0.761001 19.3337 -0.765 19.5007H-8.715L-8.719 19.7507H-13V20.2507H-8.72L-8.714 20.5007H-0.765C-0.761001 20.6687 -0.755 20.8347 -0.745 21.0007H10.15C10.1086 20.669 10.0879 20.335 10.088 20.0007H26.088C26.088 20.3398 26.068 20.6737 26.026 21.0007H37.203ZM37.124 18.0007H25.837C25.7492 17.6605 25.639 17.3264 25.507 17.0007H10.672C10.541 17.3247 10.43 17.6577 10.342 18.0007H-0.668C-0.650001 17.8337 -0.63 17.6667 -0.608 17.5007H-8.558L-8.524 17.2568H-13V16.7568H-8.445L-8.399 16.5007H-0.449C-0.419001 16.3337 -0.385 16.1667 -0.349 16.0007H36.807C36.947 16.6557 37.054 17.3228 37.124 18.0007ZM36.564 15.0007H24.334C24.0456 14.6407 23.7267 14.3062 23.381 14.0007H12.797C12.452 14.3067 12.132 14.6407 11.844 15.0007H-0.106C-0.0609999 14.8337 -0.0130005 14.6667 0.0369997 14.5007H-7.913L-7.825 14.2198H-13V13.7188H-7.658L-7.58 13.4998H0.37C0.43 13.3317 0.494 13.1658 0.56 12.9998H35.897C36.155 13.6497 36.378 14.3187 36.564 15.0007ZM35.467 12.0007H0.99C1.068 11.8327 1.148 11.6667 1.231 11.5007H-6.718L-6.577 11.2247H-13V10.7247H-6.306L-6.179 10.5007H1.771C1.868 10.3327 1.968 10.1657 2.07 10.0007H34.387C34.785 10.6427 35.147 11.3108 35.467 12.0007ZM-0.668 22.0007H37.125C37.054 22.6787 36.947 23.3468 36.807 24.0007H25.019C25.204 23.6807 25.368 23.3468 25.508 23.0007H10.67C10.81 23.3468 10.973 23.6807 11.158 24.0007H-0.35C-0.385592 23.8345 -0.418927 23.6679 -0.45 23.5007H-8.399C-8.41529 23.4129 -8.43095 23.3249 -8.446 23.2367H-13V22.7367H-8.525C-8.53648 22.6582 -8.54748 22.5795 -8.558 22.5007H-0.608C-0.630196 22.3344 -0.650198 22.1677 -0.668 22.0007ZM-0.107 25.0007H36.563C36.378 25.6838 36.155 26.3507 35.897 27.0007H21.965C22.4717 26.7195 22.9465 26.3842 23.381 26.0007H12.797C13.2315 26.3842 13.7063 26.7195 14.213 27.0007H0.56C0.494356 26.835 0.431016 26.6683 0.37 26.5007H-7.58L-7.666 26.2598H-13V25.7598H-7.832C-7.85928 25.6736 -7.88594 25.5873 -7.912 25.5007H0.0369997C-0.0130005 25.3347 -0.0610008 25.1687 -0.107 25.0007ZM0.99 28.0007H35.467C35.1473 28.6884 34.7867 29.3563 34.387 30.0007H2.07C1.96744 29.8356 1.86743 29.6689 1.77 29.5007H-6.179C-6.229 29.4147 -6.278 29.3288 -6.326 29.2418H-13V28.7418H-6.595L-6.718 28.5018H1.232C1.1489 28.3363 1.06823 28.1696 0.99 28.0018V28.0007ZM3.92 32.5007C4.067 32.6707 4.218 32.8368 4.372 33.0008H32.085C32.6752 32.3718 33.2221 31.7036 33.722 31.0007H2.735C2.855 31.1698 2.977 31.3368 3.103 31.5007H-4.847L-4.649 31.7558H-13V32.2558H-4.24C-4.171 32.3388 -4.101 32.4198 -4.03 32.5007H3.92ZM7.237 35.5008C7.48 35.6738 7.727 35.8408 7.977 36.0008H28.48C29.4004 35.4097 30.2683 34.7405 31.074 34.0008H5.384C5.569 34.1707 5.758 34.3378 5.95 34.5008H-2C-1.892 34.5928 -1.783 34.6827 -1.673 34.7707H-13V35.2707H-1.028C-0.924 35.3487 -0.818 35.4258 -0.712 35.5008H7.238H7.237ZM14.254 38.5848C15.536 38.8577 16.865 39.0008 18.228 39.0008C21.282 39.0008 24.167 38.2808 26.723 37.0008H9.733C10.089 37.1788 10.45 37.3458 10.817 37.5008H2.867C3.009 37.5608 3.152 37.6198 3.295 37.6768H-13V38.1768H4.725C6.482 38.7127 8.347 39.0008 10.279 39.0008C11.642 39.0008 12.972 38.8577 14.254 38.5848ZM2.735 9.00075H33.722C33.2221 8.29787 32.6752 7.62967 32.085 7.00075H4.372C4.218 7.16475 4.067 7.33075 3.919 7.50075H-4.03L-4.206 7.70675H-13V8.20675H-4.618C-4.695 8.30375 -4.771 8.40175 -4.846 8.50075H3.103C2.977 8.66575 2.855 8.83275 2.735 9.00075ZM5.383 6.00075H31.073C30.2676 5.261 29.4001 4.59187 28.48 4.00075H7.977C7.727 4.16175 7.48 4.32875 7.237 4.50075H-0.712C-0.822 4.57975 -0.932 4.65875 -1.04 4.73975H-13V5.23975H-1.684C-1.79 5.32575 -1.895 5.41275 -1.999 5.50075H5.95C5.758 5.66375 5.569 5.83075 5.383 6.00075ZM9.734 3.00075H26.724C24.0869 1.68119 21.1778 0.9963 18.229 1.00075C16.865 1.00075 15.536 1.14475 14.254 1.41775C12.9473 1.13995 11.6149 1.00018 10.279 1.00075C8.145 1.00075 6.094 1.35275 4.179 2.00075H-13V2.50075H10.817C10.4508 2.65597 10.0896 2.82272 9.734 3.00075ZM98.248 0.71875C98.905 0.71875 99.421 0.88275 99.796 1.21075C100.187 1.52375 100.382 1.96075 100.382 2.52475C100.382 3.08775 100.187 3.53275 99.796 3.86075C99.421 4.17375 98.905 4.33075 98.248 4.33075C97.592 4.33075 97.068 4.17375 96.677 3.86075C96.302 3.53275 96.114 3.08775 96.114 2.52475C96.114 1.96175 96.302 1.52475 96.677 1.21075C97.068 0.88275 97.592 0.71875 98.248 0.71875ZM100.077 6.51075V16.7118C100.077 17.3687 100.187 17.8148 100.406 18.0487C100.64 18.2838 101.031 18.4007 101.578 18.4007V18.8927C101.141 18.8714 100.703 18.8557 100.265 18.8458C99.6635 18.8143 99.0613 18.7986 98.459 18.7987C97.85 18.7987 97.232 18.8148 96.607 18.8458C96.1378 18.8561 95.6688 18.8718 95.2 18.8927V18.4007C95.747 18.4007 96.13 18.2838 96.349 18.0487C96.583 17.8148 96.701 17.3687 96.701 16.7118V9.32475C96.701 8.62175 96.591 8.10475 96.372 7.77775C96.169 7.43375 95.778 7.26175 95.2 7.26175V6.76875C95.7 6.81575 96.185 6.83875 96.654 6.83875C97.31 6.83875 97.92 6.81575 98.483 6.76875C99.061 6.70675 99.593 6.62075 100.077 6.51075Z" fill="#2F2352"/>
<path fill-rule="evenodd" clip-rule="evenodd" d="M106.677 8.66278V6.51078C106.193 6.62078 105.661 6.70678 105.083 6.76878C104.504 6.81578 103.894 6.83878 103.253 6.83878C102.784 6.83878 102.3 6.81578 101.799 6.76878V7.26178C102.362 7.26178 102.753 7.43378 102.972 7.77778C103.191 8.10578 103.3 8.62178 103.3 9.32478V21.0508C103.3 21.6758 103.191 22.0978 102.972 22.3168C102.769 22.5358 102.409 22.6448 101.893 22.6448V23.1378L103.136 23.0678C103.706 23.0519 104.277 23.0439 104.848 23.0438C105.645 23.0438 106.396 23.0518 107.099 23.0668C107.818 23.0988 108.381 23.1218 108.788 23.1368V22.6448C108.131 22.6448 107.615 22.5198 107.24 22.2698C106.865 22.0358 106.677 21.5508 106.677 20.8158V18.4658C106.883 18.6378 107.125 18.7798 107.404 18.8928C107.904 19.1128 108.459 19.2218 109.069 19.2218C109.898 19.2218 110.64 19.0728 111.297 18.7758C111.965 18.482 112.552 18.0317 113.009 17.4628C113.493 16.8688 113.861 16.1418 114.111 15.2818C114.377 14.4218 114.51 13.4218 114.51 12.2798C114.51 10.9828 114.322 9.90378 113.947 9.04378C113.572 8.16778 113.071 7.51978 112.446 7.09778C111.821 6.66002 111.075 6.43014 110.312 6.44078C109.405 6.44078 108.608 6.67478 107.92 7.14378C107.379 7.50878 106.965 8.01478 106.677 8.66378V8.66278ZM106.677 9.46878V17.9698C106.807 18.1238 106.964 18.2518 107.146 18.3538C107.443 18.5098 107.779 18.5878 108.155 18.5878C108.858 18.5878 109.413 18.3538 109.82 17.8848C110.226 17.3998 110.515 16.7278 110.687 15.8678C110.875 14.9928 110.969 13.9528 110.969 12.7488C110.969 11.4048 110.883 10.3488 110.711 9.58278C110.539 8.81678 110.304 8.26978 110.007 7.94178C109.71 7.61278 109.351 7.44878 108.928 7.44878C108.366 7.44878 107.85 7.66878 107.381 8.10578C107.028 8.44578 106.793 8.90078 106.677 9.46878Z" fill="#2F2352"/>
<path d="M119.895 6.44066C120.552 6.44066 121.122 6.52666 121.607 6.69866C122.107 6.85466 122.467 7.01166 122.686 7.16766C123.217 7.52766 123.546 7.29266 123.671 6.46366H124.163C124.132 6.90166 124.108 7.44166 124.093 8.08166C124.077 8.70766 124.069 9.54366 124.069 10.5917H123.577C123.496 10.0053 123.347 9.4306 123.131 8.87966C122.932 8.34496 122.601 7.86899 122.17 7.49566C121.763 7.13566 121.232 6.95566 120.575 6.95566C120.122 6.95566 119.739 7.08966 119.426 7.35566C119.113 7.60566 118.957 7.97266 118.957 8.45766C118.957 8.92666 119.098 9.34066 119.379 9.70066C119.661 10.0447 120.02 10.3807 120.458 10.7087C120.911 11.0217 121.38 11.3577 121.865 11.7167C122.381 12.1077 122.85 12.4987 123.272 12.8897C123.676 13.2433 124.017 13.6637 124.28 14.1327C124.531 14.5857 124.656 15.1247 124.656 15.7507C124.656 16.4537 124.452 17.0707 124.046 17.6027C123.639 18.1187 123.1 18.5177 122.428 18.7987C121.771 19.0807 121.036 19.2217 120.224 19.2217C119.797 19.2265 119.372 19.1791 118.957 19.0807C118.631 18.9997 118.317 18.8816 118.019 18.7287C117.816 18.6347 117.62 18.5487 117.433 18.4707C117.273 18.3829 117.108 18.3048 116.94 18.2367C116.784 18.1897 116.643 18.2437 116.518 18.4007C116.409 18.5567 116.323 18.7757 116.26 19.0567H115.768C115.799 18.5567 115.823 17.9467 115.838 17.2277C115.854 16.5087 115.862 15.5547 115.862 14.3677H116.354C116.448 15.2117 116.62 15.9617 116.87 16.6177C117.12 17.2597 117.456 17.7677 117.878 18.1427C118.316 18.5027 118.863 18.6827 119.52 18.6827C119.786 18.6827 120.044 18.6277 120.294 18.5177C120.544 18.4077 120.747 18.2277 120.904 17.9777C121.076 17.7277 121.162 17.4077 121.162 17.0177C121.162 16.3287 120.935 15.7577 120.481 15.3047C120.044 14.8517 119.481 14.3587 118.793 13.8277C118.293 13.4207 117.816 13.0227 117.363 12.6317C116.943 12.2473 116.579 11.8052 116.284 11.3187C115.998 10.8192 115.852 10.252 115.862 9.67666C115.862 8.97366 116.049 8.37966 116.424 7.89466C116.806 7.4046 117.318 7.03095 117.902 6.81566C118.536 6.56392 119.212 6.43661 119.895 6.44066ZM149.006 6.69866C148.599 6.52666 148.068 6.44066 147.411 6.44066C146.675 6.43319 145.95 6.61062 145.301 6.95666C144.66 7.28466 144.152 7.83966 143.776 8.62166V6.51166C143.292 6.62066 142.76 6.70666 142.182 6.76866C141.619 6.81566 141.009 6.83866 140.353 6.83866C139.884 6.83866 139.399 6.81566 138.899 6.76866V7.26166C139.477 7.26166 139.868 7.43366 140.071 7.77766C140.29 8.10566 140.399 8.62166 140.399 9.32466V16.7117C140.399 17.3687 140.282 17.8147 140.048 18.0487C139.829 18.2837 139.446 18.4007 138.899 18.4007V18.8927C139.367 18.8717 139.836 18.856 140.306 18.8457C140.915 18.8148 141.525 18.7991 142.135 18.7987C142.682 18.7987 143.214 18.8147 143.729 18.8457C144.261 18.8617 144.652 18.8777 144.902 18.8927V18.4007C144.496 18.4007 144.206 18.2837 144.034 18.0487C143.862 17.8147 143.776 17.3687 143.776 16.7117V10.1927C143.776 9.67666 143.878 9.21566 144.081 8.80866C144.3 8.38666 144.581 8.05866 144.925 7.82466C145.255 7.59447 145.648 7.47157 146.051 7.47266C146.411 7.47266 146.676 7.55866 146.848 7.73066C147.036 7.88666 147.161 8.11366 147.224 8.41066C147.286 8.69166 147.317 9.02766 147.317 9.41866V16.7117C147.317 17.3687 147.231 17.8147 147.059 18.0487C146.903 18.2837 146.614 18.4007 146.192 18.4007V18.8927C146.473 18.8777 146.887 18.8617 147.435 18.8457C148.544 18.7824 149.655 18.7824 150.765 18.8457C151.343 18.8617 151.773 18.8777 152.054 18.8927V18.4007C151.554 18.4007 151.202 18.2837 150.999 18.0487C150.796 17.8147 150.694 17.3687 150.694 16.7117V10.2967L150.693 10.2237L150.689 9.98666C150.725 9.59466 150.829 9.21211 150.999 8.85666C151.218 8.43366 151.499 8.09766 151.843 7.84766C152.187 7.59766 152.563 7.47266 152.969 7.47266C153.375 7.47266 153.673 7.55866 153.86 7.73066C154.063 7.88666 154.196 8.11366 154.259 8.41066C154.337 8.69166 154.376 9.02766 154.376 9.41866V16.7117C154.376 17.3687 154.29 17.8147 154.118 18.0487C153.962 18.2837 153.673 18.4007 153.25 18.4007V18.8927C153.532 18.8777 153.946 18.8617 154.493 18.8457C155.047 18.8142 155.602 18.7985 156.158 18.7987C156.737 18.7987 157.323 18.8147 157.917 18.8457C158.511 18.8617 158.957 18.8777 159.254 18.8927V18.4007C158.707 18.4007 158.316 18.2837 158.081 18.0487C157.862 17.8147 157.753 17.3687 157.753 16.7117V10.4037C157.753 9.62166 157.698 8.99666 157.589 8.52766C157.479 8.04266 157.3 7.65266 157.049 7.35566C156.799 7.07366 156.471 6.85566 156.064 6.69866C155.658 6.52666 155.126 6.44066 154.47 6.44066C153.673 6.44066 152.922 6.60466 152.219 6.93266C151.545 7.25466 150.999 7.86866 150.58 8.77466C150.565 8.69187 150.549 8.60951 150.53 8.52766C150.421 8.04266 150.241 7.65266 149.991 7.35566C149.741 7.07366 149.412 6.85566 149.006 6.69866ZM137.059 16.3367V6.51066C136.574 6.62066 136.043 6.70666 135.464 6.76866C134.902 6.81566 134.292 6.83866 133.635 6.83866C133.166 6.83866 132.682 6.81566 132.181 6.76866V7.26166C132.76 7.26166 133.151 7.43366 133.354 7.77766C133.573 8.10566 133.682 8.62166 133.682 9.32466V15.4687C133.682 15.9847 133.573 16.4537 133.354 16.8757C133.168 17.262 132.885 17.5935 132.533 17.8377C132.205 18.0724 131.81 18.1958 131.407 18.1897C131.017 18.1897 130.72 18.1107 130.516 17.9547C130.305 17.7703 130.157 17.5244 130.094 17.2517C130.027 16.9118 129.996 16.566 130 16.2197V6.51066C129.516 6.62066 128.984 6.70666 128.406 6.76866C127.843 6.81566 127.233 6.83866 126.577 6.83866C126.108 6.83866 125.623 6.81566 125.123 6.76866V7.26166C125.701 7.26166 126.092 7.43366 126.295 7.77766C126.514 8.10566 126.623 8.62166 126.623 9.32466V15.2577C126.623 16.0237 126.678 16.6497 126.788 17.1337C126.897 17.6187 127.085 18.0097 127.35 18.3067C127.585 18.5727 127.905 18.7917 128.312 18.9637C128.718 19.1347 129.25 19.2217 129.907 19.2217C130.72 19.2217 131.454 19.0567 132.111 18.7287C132.783 18.3847 133.307 17.8217 133.682 17.0407V19.1507C134.205 19.0217 134.739 18.9354 135.277 18.8927C135.84 18.8457 136.449 18.8227 137.106 18.8227C137.591 18.8227 138.075 18.8457 138.56 18.8927V18.4007C137.997 18.4007 137.606 18.2367 137.387 17.9077C137.168 17.5637 137.059 17.0407 137.059 16.3377V16.3367Z" fill="#2F2352"/>
<path fill-rule="evenodd" clip-rule="evenodd" d="M91.696 7.07369C90.836 6.65169 89.835 6.44069 88.694 6.44069C87.584 6.44069 86.591 6.65169 85.716 7.07369C84.856 7.49569 84.176 8.17569 83.676 9.11369C83.191 10.0517 82.948 11.2947 82.948 12.8427C82.948 14.3907 83.191 15.6327 83.675 16.5717C84.175 17.4937 84.855 18.1657 85.715 18.5877C86.591 19.0097 87.584 19.2217 88.694 19.2217C89.835 19.2217 90.836 19.0097 91.696 18.5877C92.555 18.1657 93.228 17.4937 93.712 16.5717C94.197 15.6337 94.439 14.3907 94.439 12.8427C94.439 11.2947 94.197 10.0527 93.712 9.11369C93.228 8.17569 92.555 7.49569 91.696 7.07369ZM87.123 8.31669C87.545 7.37869 88.069 6.90969 88.694 6.90969C89.335 6.90969 89.859 7.37869 90.265 8.31669C90.687 9.23869 90.898 10.7477 90.898 12.8427C90.898 14.9377 90.687 16.4467 90.265 17.3687C89.859 18.2907 89.335 18.7527 88.694 18.7527C88.069 18.7527 87.545 18.2907 87.123 17.3687C86.701 16.4467 86.49 14.9377 86.49 12.8427C86.49 10.7477 86.7 9.23869 87.123 8.31669ZM75.301 23.3017C74.331 23.3017 73.464 23.2157 72.698 23.0437C71.948 22.8877 71.354 22.6377 70.916 22.2937C70.494 21.9647 70.283 21.5587 70.283 21.0737C70.283 20.5887 70.501 20.1517 70.939 19.7607C71.377 19.3857 72.026 19.0887 72.886 18.8697L73.096 19.2447C72.8275 19.4463 72.6041 19.7018 72.44 19.9947C72.315 20.2767 72.252 20.5657 72.252 20.8627C72.252 21.5197 72.549 22.0197 73.144 22.3627C73.754 22.7227 74.574 22.9027 75.606 22.9027C76.309 22.9027 76.935 22.8087 77.482 22.6217C78.045 22.4337 78.482 22.1517 78.795 21.7777C79.124 21.4017 79.288 20.9407 79.288 20.3937C79.288 19.9247 79.116 19.5257 78.772 19.1977C78.428 18.8847 77.74 18.7287 76.708 18.7287H75.254C74.614 18.7287 74.05 18.6587 73.566 18.5177C73.096 18.3777 72.729 18.1577 72.463 17.8607C72.198 17.5487 72.065 17.1577 72.065 16.6887C72.065 16.0317 72.323 15.4537 72.839 14.9527C73.243 14.5607 73.801 14.1877 74.513 13.8347C74.0449 13.7765 73.5851 13.6641 73.143 13.4997C72.44 13.2337 71.885 12.8267 71.479 12.2797C71.072 11.7327 70.869 11.0297 70.869 10.1697C70.869 9.30969 71.072 8.60569 71.479 8.05869C71.885 7.49569 72.44 7.08869 73.144 6.83869C73.847 6.57369 74.644 6.44069 75.535 6.44069C76.427 6.44069 77.224 6.57369 77.927 6.83969C78.391 7.00369 78.789 7.23669 79.124 7.53669C79.323 7.24969 79.565 6.99369 79.85 6.76869C80.382 6.36269 80.953 6.15869 81.562 6.15869C82.062 6.15869 82.438 6.29969 82.688 6.58169C82.954 6.84669 83.087 7.19869 83.087 7.63669C83.087 8.10569 82.961 8.45669 82.711 8.69169C82.461 8.91169 82.18 9.02069 81.867 9.02069C81.5918 9.01705 81.3265 8.91729 81.117 8.73869C80.897 8.55069 80.773 8.26969 80.742 7.89469C80.715 7.55869 80.809 7.14269 81.024 6.64469C80.568 6.83869 80.216 7.05969 79.968 7.30869C79.781 7.48895 79.6177 7.69225 79.482 7.91369C79.52 7.96069 79.557 8.00969 79.592 8.05869C79.999 8.60569 80.202 9.30869 80.202 10.1687C80.202 11.0287 79.999 11.7327 79.592 12.2797C79.186 12.8267 78.631 13.2337 77.927 13.4997C77.224 13.7647 76.427 13.8977 75.535 13.8977C75.4016 13.8978 75.2682 13.8948 75.135 13.8887C74.924 14.0317 74.721 14.1837 74.527 14.3437C74.4065 14.438 74.3098 14.5592 74.2447 14.6976C74.1796 14.836 74.1478 14.9878 74.152 15.1407C74.152 15.6407 74.465 15.8907 75.09 15.8907H77.646C78.506 15.8907 79.272 15.9927 79.944 16.1957C80.632 16.3997 81.171 16.7357 81.562 17.2047C81.969 17.6577 82.172 18.2517 82.172 18.9867C82.172 19.7527 81.922 20.4637 81.422 21.1207C80.937 21.7777 80.187 22.3007 79.17 22.6917C78.154 23.0987 76.864 23.3017 75.301 23.3017ZM75.535 13.4757C75.958 13.4757 76.285 13.2417 76.52 12.7727C76.755 12.2877 76.872 11.4197 76.872 10.1697C76.872 8.91869 76.755 8.05869 76.52 7.58969C76.286 7.10469 75.958 6.86269 75.536 6.86269C75.129 6.86269 74.801 7.10469 74.551 7.58969C74.316 8.05869 74.199 8.91869 74.199 10.1697C74.199 11.4197 74.316 12.2877 74.551 12.7727C74.801 13.2417 75.129 13.4757 75.535 13.4757ZM67.247 7.07369C66.387 6.65169 65.387 6.44069 64.246 6.44069C63.136 6.44069 62.143 6.65169 61.268 7.07369C60.408 7.49569 59.728 8.17569 59.228 9.11369C58.743 10.0517 58.5 11.2947 58.5 12.8427C58.5 14.3907 58.743 15.6327 59.227 16.5717C59.727 17.4937 60.407 18.1657 61.267 18.5877C62.143 19.0097 63.136 19.2217 64.246 19.2217C65.387 19.2217 66.388 19.0097 67.247 18.5877C68.107 18.1657 68.779 17.4937 69.264 16.5717C69.749 15.6337 69.991 14.3907 69.991 12.8427C69.991 11.2947 69.749 10.0527 69.264 9.11369C68.78 8.17569 68.107 7.49569 67.247 7.07369ZM62.674 8.31669C63.097 7.37869 63.62 6.90969 64.246 6.90969C64.886 6.90969 65.41 7.37869 65.816 8.31669C66.239 9.23869 66.45 10.7477 66.45 12.8427C66.45 14.9377 66.239 16.4467 65.817 17.3687C65.41 18.2907 64.887 18.7527 64.246 18.7527C63.62 18.7527 63.096 18.2907 62.674 17.3687C62.252 16.4467 62.041 14.9377 62.041 12.8427C62.041 10.7477 62.252 9.23869 62.674 8.31669Z" fill="#2F2352"/>
<path d="M52.1848 2.28955V2.75955C51.6538 2.77455 51.2468 2.83655 50.9658 2.94655C50.8372 2.9901 50.721 3.064 50.627 3.16201C50.533 3.26001 50.464 3.37922 50.4258 3.50955C50.3328 3.77455 50.2858 4.19755 50.2858 4.77555V16.6886C50.2858 17.1726 50.3168 17.5326 50.3798 17.7676C50.4578 18.0016 50.5988 18.1575 50.8018 18.2366C51.0208 18.3146 51.3418 18.3536 51.7628 18.3536H52.9128C53.4428 18.3536 53.9438 18.2286 54.4128 17.9786C54.8828 17.7286 55.3038 17.3766 55.6788 16.9226C56.0744 16.4183 56.391 15.8569 56.6178 15.2576C56.8678 14.6175 57.0548 13.9056 57.1798 13.1236H57.7198C57.6728 13.6556 57.6498 14.3436 57.6498 15.1876C57.6498 15.5476 57.6568 16.0706 57.6728 16.7586C57.6888 17.4466 57.7348 18.1586 57.8128 18.8926C56.9145 18.8594 56.0157 18.8438 55.1168 18.8456C54.1168 18.8306 53.2248 18.8226 52.4428 18.8226H50.9428C50.3328 18.8226 49.6758 18.8306 48.9728 18.8456C48.2688 18.8456 47.5578 18.8535 46.8388 18.8696C46.1188 18.8696 45.4388 18.8776 44.7988 18.8926V18.4236C45.2988 18.3926 45.6738 18.3295 45.9238 18.2366C46.1738 18.1426 46.3378 17.9546 46.4168 17.6736C46.5098 17.3916 46.5568 16.9696 46.5568 16.4066V4.77555C46.5568 4.19655 46.5098 3.77555 46.4168 3.50955C46.386 3.37946 46.3224 3.25943 46.2321 3.16088C46.1418 3.06233 46.0277 2.98854 45.9008 2.94655C45.6508 2.83655 45.2828 2.77455 44.7988 2.75855V2.28955C46.0333 2.33529 47.2685 2.35863 48.5038 2.35955C49.1918 2.35955 49.8638 2.35255 50.5198 2.33655C51.1928 2.32055 51.7478 2.30555 52.1848 2.28955Z" fill="#2F2352"/>
<path fill-rule="evenodd" clip-rule="evenodd" d="M156.871 38.2719C156.838 38.1039 156.86 37.8849 156.939 37.6149L160.242 25.6479C159.714 25.8648 159.166 26.0338 158.607 26.1529C158.034 26.2659 157.377 26.3269 156.635 26.3389L156.517 26.6929C157.068 26.6929 157.411 26.7829 157.546 26.9629C157.68 27.1429 157.697 27.4229 157.596 27.8049L156.814 30.7539C156.765 30.6117 156.681 30.4843 156.568 30.3839C156.377 30.2039 156.113 30.1139 155.776 30.1139C155.102 30.1139 154.478 30.2659 153.905 30.5689C153.329 30.8839 152.81 31.2944 152.371 31.7829C151.91 32.278 151.519 32.8339 151.208 33.4349C150.902 34.0199 150.659 34.6357 150.483 35.2719C150.324 35.82 150.239 36.3871 150.23 36.9579C150.23 37.4969 150.315 37.9409 150.483 38.2889C150.652 38.6259 150.882 38.8789 151.174 39.0469C151.466 39.2049 151.792 39.2829 152.152 39.2829C152.702 39.2829 153.197 39.1209 153.635 38.7949C154.073 38.4579 154.483 37.941 154.866 37.2439C155.026 36.9599 155.187 36.6409 155.347 36.2869L155.236 36.7049C155.135 37.0342 155.067 37.373 155.034 37.716C155.012 38.0079 155.034 38.2559 155.102 38.4579C155.236 39.0079 155.652 39.2839 156.349 39.2839C156.607 39.2839 156.871 39.2329 157.141 39.1319C157.411 39.0309 157.663 38.8569 157.899 38.6089C158.147 38.3619 158.343 38.0089 158.489 37.5469L158.894 36.3169H158.574L158.304 37.0749C158.102 37.6489 157.911 38.0359 157.731 38.2379C157.562 38.4299 157.388 38.5249 157.208 38.5249C157.017 38.5249 156.905 38.4409 156.871 38.2719ZM155.972 33.9319C155.845 34.3429 155.707 34.7339 155.557 35.1029C155.276 35.8229 154.978 36.4409 154.663 36.9579C154.36 37.4629 154.062 37.8559 153.77 38.1379C153.478 38.4069 153.219 38.542 152.995 38.542C152.781 38.542 152.624 38.4409 152.523 38.2389C152.433 38.0249 152.388 37.7049 152.388 37.2779C152.388 36.6709 152.455 36.0529 152.59 35.424C152.725 34.7839 152.91 34.1709 153.146 33.5869C153.364 33.0389 153.635 32.5136 153.955 32.0189C154.259 31.5469 154.579 31.1759 154.916 30.9059C155.264 30.6359 155.607 30.5019 155.944 30.5019C156.169 30.5019 156.349 30.5809 156.484 30.7379C156.578 30.8399 156.65 30.9879 156.7 31.1839L155.972 33.9319Z" fill="#2F2352"/>
<path d="M145.655 39.0468H143.582L145.604 31.7828C145.706 31.4458 145.739 31.2098 145.706 31.0748C145.672 30.9398 145.571 30.8728 145.402 30.8728C145.189 30.8728 144.992 30.9798 144.812 31.1928C144.632 31.4058 144.447 31.7828 144.256 32.3228L143.969 33.1138H143.649L144.087 31.8498C144.245 31.3998 144.441 31.0528 144.677 30.8048C144.913 30.5468 145.172 30.3668 145.453 30.2658C145.734 30.1648 146.02 30.1138 146.312 30.1138C146.672 30.1138 146.936 30.1868 147.104 30.3338C147.284 30.4798 147.397 30.6708 147.442 30.9068C147.499 31.1611 147.51 31.4235 147.475 31.6818C147.453 31.9518 147.408 32.2158 147.34 32.4738L147.069 33.5308L147.138 33.3508C147.453 32.5528 147.756 31.9178 148.048 31.4458C148.352 30.9628 148.672 30.6198 149.009 30.4178C149.339 30.2171 149.719 30.1119 150.105 30.1138C150.509 30.1138 150.818 30.2318 151.032 30.4678C151.257 30.7038 151.369 30.9958 151.369 31.3448C151.369 31.6248 151.301 31.8898 151.167 32.1368C151.036 32.3686 150.851 32.5652 150.627 32.7098C150.414 32.8448 150.167 32.9118 149.886 32.9118C149.605 32.9118 149.38 32.8388 149.211 32.6928C149.054 32.5468 148.975 32.3328 148.975 32.0528C148.975 31.8048 149.032 31.5808 149.144 31.3778C149.252 31.1801 149.402 31.008 149.582 30.8728C149.762 30.7268 149.959 30.6258 150.172 30.5688C150.148 30.5456 150.12 30.5285 150.088 30.5188C150.05 30.5069 150.01 30.5012 149.97 30.5018C149.723 30.5018 149.47 30.5918 149.211 30.7718C148.953 30.9398 148.683 31.2158 148.402 31.5978C148.121 31.9798 147.835 32.4848 147.543 33.1138C147.213 33.8576 146.921 34.6172 146.666 35.3898C146.539 35.7638 146.411 36.1658 146.283 36.5968L145.655 39.0468Z" fill="#2F2352"/>
<path fill-rule="evenodd" clip-rule="evenodd" d="M139.357 36.4429L139.286 36.7049C139.18 37.0856 139.106 37.4747 139.067 37.8679C139.033 38.2279 139.089 38.5309 139.235 38.7779C139.46 39.1149 139.842 39.2839 140.381 39.2839C140.64 39.2839 140.898 39.2329 141.157 39.1319C141.426 39.0309 141.679 38.8569 141.915 38.6089C142.151 38.3509 142.348 37.9909 142.505 37.5309L142.927 36.3009H142.606L142.353 37.0589C142.151 37.6429 141.955 38.0309 141.764 38.2219C141.573 38.4119 141.387 38.5079 141.207 38.5079C141.061 38.5079 140.966 38.4629 140.921 38.3729C140.886 38.2585 140.874 38.138 140.887 38.0189C140.909 37.8761 140.943 37.7352 140.988 37.5979L143.163 30.1139C142.825 30.1948 142.481 30.2513 142.134 30.2829C141.786 30.3169 141.41 30.3389 141.005 30.3499L140.761 31.2519C140.751 31.0229 140.684 30.8 140.567 30.6029C140.479 30.4493 140.351 30.3226 140.197 30.2364C140.042 30.1503 139.867 30.1079 139.69 30.1139C139.196 30.1139 138.702 30.2659 138.207 30.5689C137.681 30.8995 137.21 31.309 136.808 31.7829C136.354 32.2998 135.959 32.8649 135.628 33.4679C135.297 34.0727 135.031 34.7114 134.836 35.3729C134.652 35.9682 134.556 36.587 134.55 37.2099C134.55 37.8399 134.696 38.3449 134.988 38.7269C135.28 39.0979 135.729 39.2829 136.336 39.2829C136.763 39.2829 137.173 39.1599 137.567 38.9129C137.971 38.6649 138.353 38.2549 138.713 37.6829C138.936 37.3379 139.15 36.9249 139.357 36.4429ZM137.904 38.1539C137.645 38.3899 137.415 38.5079 137.213 38.5079C137.044 38.5079 136.915 38.4239 136.825 38.2549C136.746 38.0749 136.707 37.778 136.707 37.3619C136.707 36.766 136.774 36.1539 136.909 35.5249C137.044 34.8949 137.224 34.2889 137.449 33.7049C137.685 33.1199 137.943 32.5979 138.224 32.1369C138.505 31.6769 138.786 31.3109 139.067 31.0409C139.359 30.7709 139.634 30.6369 139.893 30.6369C140.162 30.6369 140.353 30.7719 140.466 31.0409C140.578 31.2849 140.607 31.6119 140.553 32.0209L140.055 33.8629L140.112 33.57C139.932 34.2889 139.718 34.9519 139.471 35.5589C139.256 36.1016 138.997 36.6257 138.696 37.1259C138.426 37.5639 138.162 37.9069 137.904 38.1539ZM132.284 37.6149C132.205 37.8849 132.183 38.1039 132.217 38.2719C132.25 38.4409 132.363 38.5249 132.554 38.5249C132.734 38.5249 132.908 38.4299 133.076 38.2389C133.256 38.0359 133.447 37.6489 133.649 37.0749L133.919 36.3169H134.239L133.835 37.5469C133.689 38.0079 133.492 38.3619 133.245 38.6089C133.035 38.8386 132.776 39.0175 132.486 39.1319C132.234 39.2301 131.965 39.2816 131.694 39.2839C130.998 39.2839 130.582 39.0079 130.447 38.4579C130.376 38.2175 130.353 37.9653 130.38 37.716C130.402 37.424 130.469 37.0859 130.582 36.7049L130.693 36.2869C130.532 36.6409 130.371 36.9599 130.211 37.2439C129.829 37.941 129.419 38.4579 128.981 38.7939C128.554 39.1165 128.032 39.2888 127.497 39.2839C127.138 39.2839 126.812 39.2039 126.52 39.0479C126.219 38.8698 125.978 38.6054 125.829 38.2889C125.66 37.9409 125.576 37.4969 125.576 36.9579C125.576 36.4409 125.66 35.8779 125.829 35.2719C125.997 34.6539 126.239 34.0419 126.553 33.4349C126.864 32.8341 127.255 32.2783 127.716 31.7829C128.177 31.2769 128.688 30.8729 129.25 30.5689C129.827 30.2648 130.469 30.1085 131.121 30.1139C131.458 30.1139 131.722 30.2039 131.913 30.3839C132.023 30.4809 132.106 30.6039 132.16 30.7539L132.941 27.8049C133.043 27.4229 133.026 27.1419 132.891 26.9619C132.756 26.7819 132.413 26.6919 131.863 26.6919L131.981 26.3389C132.643 26.3352 133.303 26.2729 133.953 26.1529C134.512 26.0338 135.059 25.8648 135.588 25.6479L132.284 37.6149ZM130.902 35.1029C131.052 34.7329 131.191 34.3429 131.317 33.9319L132.046 31.1839C132.011 31.0199 131.937 30.8668 131.829 30.7379C131.763 30.6605 131.68 30.599 131.587 30.5581C131.493 30.5173 131.392 30.498 131.29 30.5019C130.953 30.5019 130.61 30.6369 130.262 30.9059C129.924 31.1759 129.604 31.5469 129.301 32.0189C128.98 32.5131 128.709 33.038 128.492 33.5859C128.253 34.1809 128.067 34.796 127.936 35.424C127.803 36.033 127.735 36.6545 127.733 37.2779C127.733 37.7049 127.778 38.0249 127.868 38.2379C127.969 38.4409 128.127 38.542 128.34 38.542C128.565 38.542 128.823 38.4069 129.115 38.1369C129.408 37.8569 129.705 37.4629 130.009 36.9569C130.359 36.3657 130.658 35.7454 130.902 35.1029Z" fill="#2F2352"/>
<path d="M116.295 39.0468H118.368L118.563 38.2848L118.553 38.3398C118.767 37.5528 119.008 36.7948 119.278 36.0638C119.54 35.3661 119.832 34.6802 120.154 34.0078C120.458 33.3778 120.761 32.8278 121.065 32.3558C121.368 31.8838 121.66 31.5188 121.941 31.2598C122.222 30.9898 122.48 30.8558 122.716 30.8558C122.907 30.8558 123.025 30.9228 123.07 31.0578C123.117 31.2109 123.122 31.3736 123.087 31.5298C123.053 31.7124 123.008 31.8928 122.952 32.0698L121.419 36.7048C121.261 37.1768 121.171 37.5808 121.149 37.9178C121.126 38.2548 121.188 38.5308 121.334 38.7438C121.447 38.9128 121.604 39.0418 121.806 39.1318C122.02 39.2318 122.273 39.2838 122.565 39.2838C122.834 39.2838 123.104 39.2328 123.374 39.1318C123.655 39.0418 123.913 38.8728 124.149 38.6258C124.396 38.3788 124.599 38.0188 124.756 37.5468L125.177 36.3168H124.857L124.587 37.0748C124.374 37.6598 124.172 38.0468 123.981 38.2378C123.801 38.4298 123.627 38.5248 123.458 38.5248C123.278 38.5248 123.166 38.4518 123.121 38.3048C123.076 38.1488 123.104 37.9178 123.205 37.6148L124.857 32.6588C125.003 32.2208 125.076 31.8108 125.076 31.4288C125.087 31.0358 124.981 30.7208 124.756 30.4848C124.542 30.2378 124.16 30.1148 123.61 30.1148C123.194 30.1148 122.795 30.2048 122.413 30.3838C122.031 30.5638 121.66 30.8778 121.301 31.3278C120.941 31.7658 120.57 32.3618 120.188 33.1138C119.934 33.621 119.702 34.1385 119.491 34.6648L120.053 32.4738C120.121 32.2038 120.171 31.9338 120.205 31.6648C120.239 31.3848 120.227 31.1308 120.171 30.9058C120.117 30.6734 119.979 30.4693 119.784 30.3328C119.593 30.1868 119.312 30.1138 118.941 30.1138C118.491 30.1138 118.081 30.2378 117.71 30.4848C117.34 30.7318 117.036 31.1868 116.8 31.8498L116.362 33.1138H116.682L116.969 32.3218C117.171 31.7718 117.356 31.3948 117.525 31.1928C117.705 30.9798 117.901 30.8728 118.115 30.8728C118.272 30.8728 118.368 30.9178 118.402 31.0078C118.446 31.0978 118.458 31.2098 118.435 31.3448C118.41 31.4926 118.376 31.6388 118.334 31.7828L116.295 39.0468Z" fill="#2F2352"/>
<path fill-rule="evenodd" clip-rule="evenodd" d="M111.999 36.7048L112.07 36.4428C111.89 36.8732 111.674 37.2879 111.426 37.6828C111.066 38.2548 110.684 38.6658 110.279 38.9128C109.886 39.1598 109.476 39.2828 109.049 39.2828C108.442 39.2828 107.993 39.0978 107.701 38.7268C107.408 38.3448 107.262 37.8398 107.262 37.2098C107.262 36.6258 107.358 36.0138 107.549 35.3728C107.744 34.7112 108.009 34.0726 108.341 33.4678C108.671 32.8645 109.067 32.2994 109.521 31.7828C109.922 31.3088 110.394 30.8994 110.92 30.5688C111.414 30.2658 111.909 30.1138 112.403 30.1138C112.785 30.1138 113.077 30.2768 113.28 30.6038C113.388 30.7708 113.453 30.9868 113.474 31.2518L113.718 30.3498C114.122 30.3388 114.499 30.3168 114.847 30.2828C115.207 30.2488 115.549 30.1928 115.875 30.1138L113.701 37.5988C113.655 37.7359 113.621 37.8768 113.6 38.0198C113.587 38.1389 113.598 38.2593 113.634 38.3738C113.679 38.4638 113.774 38.5088 113.92 38.5088C114.1 38.5088 114.285 38.4138 114.476 38.2228C114.667 38.0318 114.864 37.6428 115.066 37.0598L115.319 36.3008H115.639L115.218 37.5308C115.061 37.9918 114.864 38.3508 114.628 38.6108C114.418 38.8399 114.159 39.0183 113.87 39.1328C113.623 39.2317 113.36 39.2833 113.094 39.2848C112.555 39.2848 112.173 39.1158 111.948 38.7788C111.802 38.5318 111.746 38.2288 111.78 37.8688C111.819 37.4755 111.892 37.0854 111.999 36.7048ZM109.925 38.5078C110.128 38.5078 110.358 38.3898 110.617 38.1538C110.875 37.9068 111.139 37.5638 111.409 37.1258C111.678 36.6878 111.937 36.1658 112.184 35.5588C112.431 34.9518 112.645 34.2888 112.825 33.5688L112.768 33.8628L113.266 32.0218C113.319 31.6118 113.29 31.2848 113.179 31.0418C113.066 30.7718 112.875 30.6368 112.605 30.6368C112.347 30.6368 112.072 30.7718 111.78 31.0408C111.499 31.3108 111.218 31.6758 110.937 32.1368C110.656 32.5968 110.397 33.1198 110.161 33.7038C109.934 34.2956 109.754 34.9041 109.622 35.5238C109.49 36.1276 109.422 36.7437 109.42 37.3618C109.42 37.7778 109.459 38.0758 109.538 38.2548C109.628 38.4238 109.757 38.5078 109.925 38.5078Z" fill="#2F2352"/>
<path d="M108.43 30.6869L108.481 30.3499H106.473L107.267 27.5859C106.934 27.6677 106.596 27.7242 106.256 27.7549C105.908 27.7879 105.531 27.8109 105.127 27.8219L104.402 30.3499H102.868L102.784 30.6869H104.306L102.581 36.7049C102.435 37.1989 102.385 37.6429 102.43 38.0359C102.486 38.4179 102.643 38.7219 102.902 38.9459C103.171 39.1709 103.559 39.2839 104.065 39.2839C104.638 39.2839 105.132 39.1319 105.548 38.8279C105.964 38.5249 106.29 38.0249 106.526 37.3279L106.863 36.3169H106.542L106.29 37.0079C106.087 37.5699 105.863 37.9629 105.615 38.1879C105.379 38.4129 105.143 38.5249 104.907 38.5249C104.814 38.528 104.722 38.5098 104.637 38.4716C104.552 38.4335 104.478 38.3765 104.419 38.3049C104.306 38.1599 104.295 37.9299 104.385 37.6149L106.376 30.6869H108.43ZM102.848 26.9959C102.736 27.2879 102.584 27.7159 102.393 28.2769C102.213 28.8269 102.034 29.5469 101.854 30.4339H101.517C101.55 30.2769 101.573 30.1139 101.584 29.9459C101.605 29.7952 101.616 29.6432 101.618 29.4909C101.618 29.0519 101.528 28.6709 101.348 28.3449C101.175 28.003 100.897 27.7252 100.556 27.5519C100.208 27.3499 99.7575 27.2489 99.2075 27.2489C98.6115 27.2489 98.1055 27.4059 97.6905 27.7209C97.2745 28.0239 97.0665 28.5129 97.0665 29.1869C97.0665 29.6029 97.1615 29.9969 97.3525 30.3669C97.5555 30.7269 97.8085 31.0809 98.1115 31.4289C98.4265 31.7659 98.7575 32.1089 99.1055 32.4569C99.4545 32.7939 99.7805 33.1429 100.084 33.5019C100.387 33.8619 100.635 34.2439 100.826 34.6479C101.028 35.0419 101.129 35.4739 101.129 35.9459C101.129 36.5419 100.983 37.0529 100.691 37.4799C100.406 37.8994 100.031 38.2505 99.5945 38.5079C99.1366 38.7698 98.6426 38.9628 98.1285 39.0809C97.6336 39.2131 97.1238 39.2813 96.6115 39.2839C96.1055 39.2839 95.6845 39.2439 95.3475 39.1659C95.0595 39.1117 94.7811 39.015 94.5215 38.8789C94.3009 38.758 94.0815 38.6346 93.8635 38.5089C93.7643 38.4257 93.6498 38.3625 93.5265 38.3229C93.448 38.2835 93.3623 38.2603 93.2745 38.2549C93.1275 38.2549 93.0045 38.3279 92.9035 38.4749C92.7709 38.6945 92.6581 38.9254 92.5665 39.1649H92.2285C92.5069 38.4795 92.7381 37.7759 92.9205 37.0589C93.0545 36.5419 93.2065 35.8959 93.3755 35.1199H93.7125C93.6655 35.3432 93.6261 35.568 93.5945 35.7939C93.5605 36.0189 93.5495 36.2439 93.5605 36.4689C93.5945 37.2549 93.8355 37.8619 94.2855 38.2889C94.7465 38.7159 95.4205 38.9289 96.3075 38.9289C97.0605 38.9289 97.6285 38.7719 98.0105 38.4579C98.3925 38.1319 98.5835 37.6599 98.5835 37.0419C98.5835 36.5699 98.4935 36.1419 98.3135 35.7609C98.1436 35.3646 97.9165 34.9954 97.6395 34.6649C97.3539 34.323 97.056 33.9915 96.7465 33.6709C96.4364 33.3504 96.1382 33.0185 95.8525 32.6759C95.5766 32.3356 95.3445 31.962 95.1615 31.5639C94.9775 31.1383 94.8858 30.6786 94.8925 30.2149C94.8925 29.6539 95.0105 29.1649 95.2465 28.7489C95.4843 28.3432 95.8057 27.9927 96.1895 27.7209C96.5831 27.4399 97.0222 27.2288 97.4875 27.0969C97.9402 26.954 98.4118 26.8802 98.8865 26.8779C99.4935 26.8779 99.9935 26.9509 100.387 27.0979C100.781 27.2429 101.118 27.4179 101.399 27.6199L101.719 27.8219C101.82 27.8669 101.899 27.8889 101.955 27.8889C102.112 27.8889 102.298 27.5919 102.511 26.9959H102.848Z" fill="#2F2352"/>
<path fill-rule="evenodd" clip-rule="evenodd" d="M86.5785 38.2719C86.5445 38.1039 86.5675 37.8849 86.6465 37.6149L89.9495 25.6479C89.4207 25.8648 88.8735 26.0338 88.3145 26.1529C87.7415 26.2659 87.0845 26.3269 86.3425 26.3389L86.2245 26.6929C86.7745 26.6929 87.1185 26.7829 87.2525 26.9629C87.3875 27.1429 87.4045 27.4229 87.3035 27.8049L86.5215 30.7539C86.4724 30.6117 86.3877 30.4843 86.2755 30.3839C86.0845 30.2039 85.8205 30.1139 85.4835 30.1139C84.8085 30.1139 84.1855 30.2659 83.6125 30.5689C83.0361 30.8838 82.5174 31.2943 82.0785 31.7829C81.6174 32.278 81.2261 32.8339 80.9155 33.4349C80.6094 34.0198 80.3664 34.6356 80.1905 35.2719C80.0305 35.82 79.9454 36.3871 79.9375 36.9579C79.9375 37.4969 80.0225 37.9409 80.1905 38.2889C80.3595 38.6259 80.5895 38.8789 80.8815 39.0469C81.1735 39.2049 81.4995 39.2829 81.8595 39.2829C82.4095 39.2829 82.9045 39.1209 83.3425 38.7949C83.7805 38.4579 84.1905 37.941 84.5725 37.2439C84.7325 36.9599 84.8935 36.6409 85.0545 36.2869L84.9445 36.7049C84.8422 37.0341 84.7742 37.3729 84.7415 37.716C84.7146 37.9653 84.7374 38.2175 84.8085 38.4579C84.9435 39.0079 85.3585 39.2839 86.0565 39.2839C86.3145 39.2839 86.5785 39.2329 86.8485 39.1319C87.1185 39.0309 87.3705 38.8569 87.6065 38.6089C87.8545 38.3619 88.0505 38.0089 88.1965 37.5469L88.6015 36.3169H88.2815L88.0115 37.0749C87.8095 37.6489 87.6185 38.0359 87.4385 38.2379C87.2695 38.4299 87.0955 38.5249 86.9155 38.5249C86.7255 38.5249 86.6125 38.4409 86.5785 38.2719ZM85.6785 33.9319C85.5525 34.3429 85.4145 34.7339 85.2635 35.1029C84.9835 35.8229 84.6855 36.4409 84.3705 36.9579C84.0675 37.4629 83.7695 37.8559 83.4775 38.1379C83.1855 38.4069 82.9275 38.542 82.7015 38.542C82.4885 38.542 82.3315 38.4409 82.2305 38.2389C82.1405 38.0249 82.0955 37.7049 82.0955 37.2779C82.0955 36.6709 82.1625 36.0529 82.2975 35.424C82.4325 34.7839 82.6175 34.1709 82.8535 33.5869C83.0709 33.0388 83.3423 32.5135 83.6635 32.0189C83.9665 31.5469 84.2865 31.1759 84.6235 30.9059C84.9715 30.6359 85.3145 30.5019 85.6515 30.5019C85.8765 30.5019 86.0565 30.5809 86.1915 30.7379C86.2855 30.8399 86.3575 30.9879 86.4075 31.1839L85.6785 33.9319Z" fill="#2F2352"/>
<path d="M72.7273 39.0468H70.6543L72.6943 31.7828C72.7393 31.6258 72.7723 31.4798 72.7943 31.3448C72.8194 31.2318 72.8078 31.1137 72.7613 31.0078C72.7273 30.9178 72.6313 30.8728 72.4743 30.8728C72.2613 30.8728 72.0643 30.9798 71.8843 31.1928C71.7163 31.3948 71.5303 31.7718 71.3283 32.3228L71.0423 33.1138H70.7223L71.1603 31.8498C71.3963 31.1868 71.7003 30.7318 72.0703 30.4848C72.4403 30.2378 72.8503 30.1148 73.3003 30.1148C73.6713 30.1148 73.9523 30.1868 74.1433 30.3328C74.3392 30.4691 74.4774 30.6733 74.5313 30.9058C74.5873 31.1308 74.5983 31.3838 74.5653 31.6648C74.5309 31.9372 74.4802 32.2074 74.4133 32.4738L73.8513 34.6658C74.0893 34.0768 74.3213 33.5608 74.5483 33.1138C74.9303 32.3618 75.3003 31.7658 75.6603 31.3278C76.0203 30.8778 76.3903 30.5638 76.7723 30.3838C77.1553 30.2038 77.5533 30.1138 77.9693 30.1138C78.5193 30.1138 78.9023 30.2378 79.1153 30.4848C79.3403 30.7208 79.4473 31.0348 79.4353 31.4288C79.4353 31.8108 79.3633 32.2208 79.2163 32.6588L77.5653 37.6148C77.4633 37.9178 77.4353 38.1488 77.4803 38.3048C77.5253 38.4518 77.6383 38.5248 77.8183 38.5248C77.9863 38.5248 78.1603 38.4298 78.3403 38.2388C78.5313 38.0468 78.7333 37.6588 78.9473 37.0748L79.2173 36.3168H79.5373L79.1153 37.5468C78.9583 38.0188 78.7553 38.3788 78.5093 38.6268C78.2975 38.858 78.0305 39.0318 77.7333 39.1318C77.475 39.2309 77.2009 39.2824 76.9243 39.2838C76.6323 39.2838 76.3793 39.2328 76.1663 39.1318C75.9633 39.0418 75.8063 38.9118 75.6943 38.7438C75.5483 38.5308 75.4863 38.2548 75.5083 37.9178C75.5313 37.5808 75.6213 37.1768 75.7783 36.7048L77.3123 32.0698C77.3683 31.8898 77.4133 31.7098 77.4473 31.5298C77.4827 31.3736 77.4768 31.211 77.4303 31.0578C77.3853 30.9228 77.2673 30.8558 77.0763 30.8558C76.8403 30.8558 76.5813 30.9908 76.3013 31.2598C76.0203 31.5188 75.7273 31.8838 75.4243 32.3558C75.088 32.8876 74.7841 33.4393 74.5143 34.0078C74.2113 34.6378 73.9183 35.3218 73.6373 36.0638C73.3673 36.7938 73.1273 37.5528 72.9133 38.3398L72.9233 38.2848L72.7273 39.0468Z" fill="#2F2352"/>
<path fill-rule="evenodd" clip-rule="evenodd" d="M66.43 36.4428L66.36 36.7048C66.2539 37.0855 66.1803 37.4746 66.14 37.8678C66.106 38.2278 66.162 38.5308 66.308 38.7778C66.533 39.1148 66.915 39.2838 67.455 39.2838C67.7432 39.2818 68.028 39.2208 68.2918 39.1047C68.5555 38.9887 68.7928 38.8199 68.989 38.6088C69.225 38.3508 69.421 37.9908 69.579 37.5308L69.999 36.3008H69.679L69.427 37.0588C69.224 37.6428 69.027 38.0308 68.837 38.2218C68.646 38.4118 68.46 38.5078 68.281 38.5078C68.134 38.5078 68.039 38.4628 67.994 38.3728C67.9589 38.2583 67.9473 38.1379 67.96 38.0188C67.983 37.8728 68.016 37.7328 68.062 37.5978L70.236 30.1138C69.8979 30.1947 69.5543 30.2512 69.208 30.2828C68.859 30.3168 68.483 30.3388 68.078 30.3498L67.834 31.2518C67.8236 31.0228 67.757 30.7999 67.64 30.6028C67.5523 30.4494 67.4244 30.3227 67.27 30.2366C67.1157 30.1504 66.9407 30.108 66.764 30.1138C66.269 30.1138 65.774 30.2658 65.28 30.5688C64.786 30.8728 64.32 31.2768 63.881 31.7828C63.427 32.2995 63.0313 32.8645 62.701 33.4678C62.3696 34.0726 62.104 34.7113 61.909 35.3728C61.7252 35.968 61.6288 36.5869 61.623 37.2098C61.623 37.8398 61.769 38.3448 62.061 38.7268C62.353 39.0978 62.803 39.2828 63.409 39.2828C63.836 39.2828 64.247 39.1598 64.639 38.9128C65.044 38.6648 65.427 38.2548 65.786 37.6828C66.009 37.3378 66.223 36.9248 66.43 36.4428ZM64.977 38.1538C64.719 38.3898 64.488 38.5078 64.286 38.5078C64.117 38.5078 63.988 38.4238 63.898 38.2548C63.82 38.0748 63.78 37.7778 63.78 37.3618C63.78 36.7658 63.848 36.1538 63.983 35.5248C64.117 34.8948 64.297 34.2888 64.522 33.7048C64.758 33.1198 65.016 32.5978 65.297 32.1368C65.578 31.6768 65.859 31.3108 66.14 31.0408C66.432 30.7708 66.707 30.6368 66.966 30.6368C67.236 30.6368 67.426 30.7718 67.539 31.0408C67.651 31.2848 67.679 31.6118 67.626 32.0208L67.128 33.8628L67.185 33.5698C67.005 34.2888 66.792 34.9518 66.545 35.5588C66.297 36.1648 66.039 36.6878 65.769 37.1258C65.499 37.5638 65.235 37.9068 64.977 38.1538Z" fill="#2F2352"/>
<path d="M57.116 39.0468H55.043L57.065 31.7828C57.166 31.4458 57.2 31.2098 57.166 31.0748C57.133 30.9398 57.032 30.8728 56.863 30.8728C56.65 30.8728 56.453 30.9798 56.273 31.1928C56.093 31.4058 55.908 31.7828 55.717 32.3228L55.43 33.1138H55.11L55.548 31.8498C55.706 31.3998 55.902 31.0528 56.138 30.8048C56.374 30.5468 56.633 30.3668 56.914 30.2658C57.194 30.1648 57.481 30.1138 57.774 30.1138C58.133 30.1138 58.397 30.1868 58.565 30.3338C58.7437 30.4772 58.8639 30.681 58.903 30.9068C58.959 31.1428 58.97 31.4008 58.936 31.6818C58.914 31.9518 58.869 32.2158 58.801 32.4738L58.531 33.5308L58.558 33.4578L58.599 33.3508C58.914 32.5528 59.217 31.9178 59.509 31.4458C59.813 30.9628 60.133 30.6198 60.47 30.4178C60.8002 30.2171 61.1796 30.1119 61.566 30.1138C61.97 30.1138 62.279 30.2318 62.493 30.4678C62.717 30.7038 62.83 30.9958 62.83 31.3448C62.83 31.6248 62.762 31.8898 62.627 32.1368C62.4962 32.3685 62.3113 32.5651 62.088 32.7098C61.8652 32.8471 61.6076 32.9172 61.346 32.9118C61.066 32.9118 60.841 32.8388 60.672 32.6928C60.515 32.5468 60.436 32.3328 60.436 32.0528C60.436 31.8048 60.492 31.5808 60.605 31.3778C60.717 31.1758 60.863 31.0078 61.043 30.8728C61.223 30.7268 61.419 30.6258 61.633 30.5688C61.6093 30.5458 61.5805 30.5287 61.549 30.5188C61.5266 30.5112 61.5035 30.5062 61.48 30.5038C61.4633 30.5022 61.4467 30.5016 61.43 30.5018C61.184 30.5018 60.93 30.5918 60.672 30.7718C60.414 30.9398 60.144 31.2158 59.863 31.5978C59.583 31.9798 59.296 32.4848 59.003 33.1138C58.6735 33.8575 58.3811 34.6171 58.127 35.3898C58 35.7628 57.872 36.1658 57.744 36.5968L57.116 39.0468Z" fill="#2F2352"/>
<path fill-rule="evenodd" clip-rule="evenodd" d="M53.9627 27.7378C53.4007 27.3328 52.5018 27.1308 51.2658 27.1308C50.8838 27.1308 50.5018 27.1368 50.1188 27.1478C49.7488 27.1588 49.3218 27.1648 48.8388 27.1648H47.9958C47.6918 27.1528 47.4057 27.1478 47.1357 27.1478C46.911 27.1379 46.6863 27.1265 46.4618 27.1138L46.3778 27.4508C46.8158 27.4508 47.1138 27.5068 47.2708 27.6198C47.4398 27.7198 47.5178 27.8778 47.5068 28.0918C47.4841 28.3647 47.4389 28.6353 47.3717 28.9008L45.1468 37.2608C45.0468 37.6648 44.9337 37.9688 44.8097 38.1708C44.6978 38.364 44.5177 38.5084 44.3048 38.5758C44.0908 38.6428 43.7928 38.6878 43.4108 38.7098L43.3438 39.0468C43.5337 39.0368 43.7648 39.0308 44.0338 39.0308C44.3038 39.0188 44.5908 39.0138 44.8938 39.0138C45.742 38.988 46.5909 38.9936 47.4388 39.0308C47.8998 39.0408 48.3218 39.0478 48.7038 39.0478C49.4338 39.0478 50.1248 38.9738 50.7768 38.8278C51.3777 38.6915 51.9525 38.4584 52.4787 38.1378C52.9495 37.8573 53.3479 37.4703 53.6418 37.0078C53.9338 36.5578 54.0798 36.0308 54.0798 35.4238C54.0798 34.7378 53.7998 34.1478 53.2378 33.6538C52.6878 33.1588 51.8158 32.8668 50.6248 32.7768C51.3678 32.6701 52.0898 32.4484 52.7648 32.1198C53.3948 31.7938 53.8888 31.3948 54.2488 30.9228C54.6111 30.4746 54.8075 29.9151 54.8048 29.3388C54.8048 28.6648 54.5257 28.1308 53.9627 27.7378ZM48.5828 32.9968L47.4558 37.2608C47.3888 37.5408 47.3438 37.7888 47.3218 38.0018C47.3098 38.2158 47.3657 38.3788 47.4897 38.4918C47.6137 38.6038 47.8438 38.6598 48.1808 38.6598C48.9788 38.6598 49.6307 38.5078 50.1357 38.2048C50.6306 37.9138 51.0248 37.4788 51.2658 36.9578C51.5128 36.4178 51.6358 35.8108 51.6358 35.1378C51.6358 34.7208 51.5628 34.3558 51.4168 34.0418C51.2882 33.7228 51.057 33.4557 50.7598 33.2828C50.4568 33.0918 50.0517 32.9968 49.5457 32.9968H48.5828ZM48.6588 32.7098H49.4288C50.0688 32.7098 50.6137 32.5468 51.0627 32.2208C51.5237 31.8838 51.8728 31.4458 52.1088 30.9068C52.3545 30.3728 52.4808 29.7916 52.4787 29.2038C52.4787 28.6418 52.3668 28.2098 52.1418 27.9058C51.9288 27.6028 51.5518 27.4508 51.0118 27.4508C50.6198 27.4508 50.3388 27.5298 50.1698 27.6868C50.0017 27.8328 49.8558 28.1528 49.7318 28.6468L48.6588 32.7098Z" fill="#2F2352"/>
</g>
<defs>
<clipPath id="clip0_756_10733">
<rect width="174" height="39" fill="white" transform="translate(0 0.859375)"/>
</clipPath>
</defs>
</svg>
