<svg width="177" height="42" viewBox="0 0 177 42" fill="none" xmlns="http://www.w3.org/2000/svg">
<g clip-path="url(#clip0_756_10750)">
<path fill-rule="evenodd" clip-rule="evenodd" d="M15 30C13.6739 30 12.4021 29.4732 11.4645 28.5355C10.5268 27.5979 10 26.3261 10 25V2H0V25C0 33.284 6.716 40 15 40H26V30H15ZM45 12C43.8181 12 42.6478 12.2328 41.5558 12.6851C40.4639 13.1374 39.4718 13.8003 38.636 14.636C37.8003 15.4718 37.1374 16.4639 36.6851 17.5558C36.2328 18.6478 36 19.8181 36 21C36 22.1819 36.2328 23.3522 36.6851 24.4442C37.1374 25.5361 37.8003 26.5282 38.636 27.364C39.4718 28.1997 40.4639 28.8626 41.5558 29.3149C42.6478 29.7672 43.8181 30 45 30C47.3869 30 49.6761 29.0518 51.364 27.364C53.0518 25.6761 54 23.3869 54 21C54 18.6131 53.0518 16.3239 51.364 14.636C49.6761 12.9482 47.3869 12 45 12ZM26 21C26 10.507 34.507 2 45 2C55.493 2 64 10.507 64 21C64 31.493 55.493 40 45 40C34.507 40 26 31.493 26 21ZM153 12C150.613 12 148.324 12.9482 146.636 14.636C144.948 16.3239 144 18.6131 144 21C144 23.3869 144.948 25.6761 146.636 27.364C148.324 29.0518 150.613 30 153 30C155.387 30 157.676 29.0518 159.364 27.364C161.052 25.6761 162 23.3869 162 21C162 18.6131 161.052 16.3239 159.364 14.636C157.676 12.9482 155.387 12 153 12ZM134 21C134 10.507 142.507 2 153 2C163.493 2 172 10.507 172 21C172 31.493 163.493 40 153 40C142.507 40 134 31.493 134 21ZM85 2C74.507 2 66 10.507 66 21C66 31.493 74.507 40 85 40H113C114.969 40 116.868 39.7 118.654 39.144L124 42L129.768 31.196C131.233 28.4457 132 25.3773 132 22.261V21C132 10.507 123.493 2 113 2H85ZM122 21C122 18.6131 121.052 16.3239 119.364 14.636C117.676 12.9482 115.387 12 113 12H85C83.8181 12 82.6478 12.2328 81.5558 12.6851C80.4639 13.1374 79.4718 13.8003 78.636 14.636C77.8003 15.4718 77.1374 16.4639 76.6851 17.5558C76.2328 18.6478 76 19.8181 76 21C76 22.1819 76.2328 23.3522 76.6851 24.4442C77.1374 25.5361 77.8003 26.5282 78.636 27.364C79.4718 28.1997 80.4639 28.8626 81.5558 29.3149C82.6478 29.7672 83.8181 30 85 30H113C115.375 30.0001 117.654 29.0615 119.339 27.3888C121.025 25.716 121.982 23.4448 122 21.07V21Z" fill="#283841"/>
<path d="M176.334 4.07812C176.334 4.74117 176.071 5.37705 175.602 5.84589C175.133 6.31473 174.497 6.57812 173.834 6.57812C173.171 6.57812 172.535 6.31473 172.066 5.84589C171.597 5.37705 171.334 4.74117 171.334 4.07812C171.334 3.41508 171.597 2.7792 172.066 2.31036C172.535 1.84152 173.171 1.57813 173.834 1.57812C174.497 1.57812 175.133 1.84152 175.602 2.31036C176.071 2.7792 176.334 3.41508 176.334 4.07812Z" fill="#283841"/>
</g>
<defs>
<clipPath id="clip0_756_10750">
<rect width="177" height="41" fill="white" transform="translate(0 0.859375)"/>
</clipPath>
</defs>
</svg>
