<svg width="220" height="41" viewBox="0 0 220 41" fill="none" xmlns="http://www.w3.org/2000/svg">
<g clip-path="url(#clip0_756_10772)">
<path d="M19.9994 40.3594C31.0454 40.3594 39.9994 31.4054 39.9994 20.3594V6.35938C39.9994 4.76808 39.3673 3.24195 38.2421 2.11673C37.1169 0.991516 35.5907 0.359375 33.9994 0.359375L20.9994 0.359375V9.13338C20.9994 11.1354 21.1214 13.2094 22.1714 14.9134C22.9231 16.1346 23.9287 17.1798 25.1199 17.9782C26.3112 18.7765 27.6602 19.3093 29.0754 19.5404L29.4584 19.6024C29.6163 19.6563 29.7534 19.7583 29.8505 19.8941C29.9475 20.0298 29.9997 20.1925 29.9997 20.3594C29.9997 20.5262 29.9475 20.6889 29.8505 20.8247C29.7534 20.9604 29.6163 21.0624 29.4584 21.1164L29.0754 21.1784C27.0076 21.5162 25.0981 22.4949 23.6166 23.9765C22.135 25.4581 21.1562 27.3675 20.8184 29.4354L20.7564 29.8184C20.7025 29.9763 20.6005 30.1133 20.4647 30.2104C20.329 30.3074 20.1663 30.3596 19.9994 30.3596C19.8326 30.3596 19.6699 30.3074 19.5341 30.2104C19.3984 30.1133 19.2964 29.9763 19.2424 29.8184L19.1804 29.4354C18.9493 28.0201 18.4165 26.6711 17.6182 25.4799C16.8198 24.2887 15.7746 23.2831 14.5534 22.5314C12.8494 21.4814 10.7754 21.3594 8.77344 21.3594H0.0234375C0.546438 31.9404 9.28944 40.3594 19.9994 40.3594Z" fill="#0E1534"/>
<path d="M0 19.3594H8.774C10.776 19.3594 12.85 19.2374 14.554 18.1874C15.886 17.3667 17.0073 16.2454 17.828 14.9134C18.878 13.2094 19 11.1354 19 9.13338V0.359375H6C4.4087 0.359375 2.88258 0.991516 1.75736 2.11673C0.632141 3.24195 0 4.76808 0 6.35938L0 19.3594ZM46.455 2.35938C46.455 2.88981 46.2443 3.39852 45.8692 3.77359C45.4941 4.14866 44.9854 4.35938 44.455 4.35938C43.9246 4.35938 43.4159 4.14866 43.0408 3.77359C42.6657 3.39852 42.455 2.88981 42.455 2.35938C42.455 1.82894 42.6657 1.32023 43.0408 0.945161C43.4159 0.570089 43.9246 0.359375 44.455 0.359375C44.9854 0.359375 45.4941 0.570089 45.8692 0.945161C46.2443 1.32023 46.455 1.82894 46.455 2.35938ZM211.711 12.4634C217.302 12.4634 220 16.3684 220 20.8914V29.3864H214.149V21.8994C214.149 19.8494 213.401 18.1574 211.256 18.1574C209.111 18.1574 208.396 19.8494 208.396 21.8994V29.3854H202.545V21.8994C202.545 19.8494 201.83 18.1574 199.684 18.1574C197.539 18.1574 196.791 19.8494 196.791 21.8994V29.3854H190.941V20.8904C190.941 16.3674 193.638 12.4624 199.229 12.4624C202.285 12.4624 204.495 13.6664 205.503 15.6514C206.575 13.6664 208.916 12.4614 211.711 12.4614V12.4634ZM180.427 24.1794C182.312 24.1794 183.125 22.4544 183.125 20.4034V13.1134H188.975V21.1194C188.975 25.9034 186.18 29.8744 180.427 29.8744C174.673 29.8744 171.878 25.9044 171.878 21.1194V13.1134H177.729V20.4034C177.729 22.4534 178.541 24.1794 180.427 24.1794ZM163.275 29.9064C159.602 29.9064 157.229 28.6374 155.831 26.1644L160.057 23.7884C160.642 24.8294 161.519 25.3504 162.982 25.3504C164.185 25.3504 164.737 24.9274 164.737 24.4064C164.737 22.4214 156.156 24.4394 156.156 18.1264C156.156 15.0664 158.756 12.5934 163.177 12.5934C167.045 12.5934 169.158 14.4804 170.101 16.3034L165.875 18.7114C165.518 17.7354 164.412 17.1494 163.307 17.1494C162.462 17.1494 162.007 17.5074 162.007 17.9954C162.007 20.0134 170.588 18.1584 170.588 24.2764C170.588 27.6934 167.24 29.9064 163.275 29.9064ZM142.833 36.8714H136.982V21.2174C136.982 16.2374 140.72 12.6254 145.921 12.6254C150.992 12.6254 154.86 16.4984 154.86 21.2174C154.86 26.4244 151.414 29.8744 146.246 29.8744C145.043 29.8744 143.841 29.5164 142.833 28.9624V36.8714ZM145.921 24.3744C147.774 24.3744 149.009 22.9424 149.009 21.2494C149.009 19.5254 147.774 18.1254 145.921 18.1254C144.068 18.1254 142.833 19.5254 142.833 21.2504C142.833 22.9424 144.068 24.3744 145.921 24.3744ZM131.121 11.3894C129.203 11.3894 127.611 9.79437 127.611 7.87437C127.611 5.95437 129.203 4.35938 131.121 4.35938C133.039 4.35938 134.632 5.95437 134.632 7.87437C134.632 9.79437 133.039 11.3894 131.121 11.3894ZM128.196 13.1134H134.047V29.3864H128.196V13.1134ZM116.97 29.8744C111.899 29.8744 108.031 25.9694 108.031 21.2174C108.031 16.4984 111.899 12.5934 116.97 12.5934C122.041 12.5934 125.909 16.4984 125.909 21.2174C125.909 25.9694 122.041 29.8744 116.97 29.8744ZM116.97 24.3744C118.823 24.3744 120.058 22.9424 120.058 21.2494C120.058 19.5254 118.823 18.0934 116.97 18.0934C115.117 18.0934 113.882 19.5254 113.882 21.2494C113.882 22.9424 115.117 24.3744 116.97 24.3744ZM96.983 37.3594C92.953 37.3594 90.027 35.5694 88.532 32.3794L93.375 29.7764C93.895 30.8834 94.87 32.0224 96.885 32.0224C98.999 32.0224 100.396 30.6874 100.559 28.3444C99.779 29.0284 98.543 29.5484 96.691 29.5484C92.172 29.5484 88.531 26.0664 88.531 21.1844C88.531 16.4664 92.4 12.6254 97.471 12.6254C102.672 12.6254 106.41 16.2384 106.41 21.2174V27.6614C106.41 33.5194 102.346 37.3594 96.983 37.3594ZM97.373 24.0494C99.128 24.0494 100.461 22.8444 100.461 21.0544C100.461 19.2974 99.129 18.1254 97.373 18.1254C95.65 18.1254 94.285 19.2974 94.285 21.0554C94.285 22.8454 95.65 24.0484 97.373 24.0484V24.0494ZM78.607 29.8744C73.536 29.8744 69.667 25.9694 69.667 21.2174C69.667 16.4984 73.536 12.5934 78.607 12.5934C83.677 12.5934 87.546 16.4984 87.546 21.2174C87.546 25.9694 83.678 29.8744 78.607 29.8744ZM78.607 24.3744C80.46 24.3744 81.695 22.9424 81.695 21.2494C81.695 19.5254 80.46 18.0934 78.607 18.0934C76.754 18.0934 75.519 19.5254 75.519 21.2494C75.519 22.9424 76.754 24.3744 78.607 24.3744ZM59.013 7.41937V23.8534H68.7V29.3864H58.2C54.495 29.3864 53 27.4334 53 24.3414V7.41937H59.013Z" fill="#0E1534"/>
</g>
<defs>
<clipPath id="clip0_756_10772">
<rect width="220" height="40" fill="white" transform="translate(0 0.359375)"/>
</clipPath>
</defs>
</svg>
