<svg width="80" height="82" viewBox="0 0 80 82" fill="none" xmlns="http://www.w3.org/2000/svg">
<g clip-path="url(#clip0_756_10775)">
<path d="M80 41.4375C80 63.5289 62.0914 81.4375 40 81.4375C17.9086 81.4375 0 63.5289 0 41.4375C0 19.3461 17.9086 1.4375 40 1.4375C62.0914 1.4375 80 19.3461 80 41.4375Z" fill="#1D2633"/>
<path d="M69.7127 51.6509C71.0635 51.6509 72.0243 52.9637 71.5163 54.2153C66.4657 66.6609 54.2573 75.4376 39.999 75.4376C25.7408 75.4376 13.5324 66.6609 8.4817 54.2153C7.97373 52.9637 8.93455 51.6509 10.2854 51.6509H69.7127Z" fill="#EDEBDE"/>
<path d="M71.5163 28.6597C72.0243 29.9114 71.0635 31.2242 69.7127 31.2242H10.2854C8.93454 31.2242 7.97373 29.9114 8.48169 28.6597C13.5324 16.2142 25.7408 7.4375 39.999 7.4375C54.2573 7.4375 66.4655 16.2142 71.5163 28.6597Z" fill="#EDEBDE"/>
<path d="M69.8368 38.5874C72.084 38.5874 73.1684 40.1552 73.1684 41.9712V45.3812H70.8167V42.3763C70.8167 41.5532 70.5162 40.8738 69.6539 40.8738C68.7916 40.8738 68.5042 41.5532 68.5042 42.3763V45.3812H66.1525V42.3763C66.1525 41.5532 65.8651 40.8738 65.0028 40.8738C64.1405 40.8738 63.84 41.5532 63.84 42.3763V45.3812H61.4883V41.9712C61.4883 40.1552 62.5727 38.5874 64.8199 38.5874C66.048 38.5874 66.9364 39.0708 67.3414 39.8678C67.7726 39.0708 68.7133 38.5874 69.8368 38.5874Z" fill="#EDEBDE"/>
<path d="M57.2641 43.2907C58.0219 43.2907 58.3485 42.5983 58.3485 41.7752V38.8486H60.7002V42.0626C60.7002 43.9831 59.5766 45.5771 57.2641 45.5771C54.9516 45.5771 53.8281 43.9831 53.8281 42.0626V38.8486H56.1797V41.7752C56.1797 42.5983 56.5064 43.2907 57.2641 43.2907Z" fill="#EDEBDE"/>
<path d="M50.3668 45.5901C48.8905 45.5901 47.9367 45.0806 47.375 44.0877L49.0734 43.1339C49.3086 43.552 49.6613 43.761 50.2492 43.761C50.7326 43.761 50.9547 43.5912 50.9547 43.3822C50.9547 42.5852 47.5056 43.3952 47.5056 40.8606C47.5056 39.6325 48.5508 38.6396 50.3276 38.6396C51.8824 38.6396 52.7316 39.3973 53.1105 40.129L51.412 41.0958C51.2683 40.7038 50.8241 40.4687 50.3799 40.4687C50.0402 40.4687 49.8573 40.6124 49.8573 40.8084C49.8573 41.6184 53.3064 40.8737 53.3064 43.3299C53.3064 44.7017 51.9608 45.5901 50.3668 45.5901Z" fill="#EDEBDE"/>
<path d="M42.1525 48.3862H39.8008V42.102C39.8008 40.1031 41.3033 38.6528 43.3937 38.6528C45.4318 38.6528 46.9865 40.2076 46.9865 42.102C46.9865 44.1924 45.6017 45.5773 43.5243 45.5773C43.0409 45.5773 42.5575 45.4336 42.1525 45.2114V48.3862ZM43.3937 43.3693C44.1384 43.3693 44.6348 42.7944 44.6348 42.1151C44.6348 41.4226 44.1384 40.8608 43.3937 40.8608C42.649 40.8608 42.1525 41.4226 42.1525 42.1151C42.1525 42.7944 42.649 43.3693 43.3937 43.3693Z" fill="#EDEBDE"/>
<path d="M37.4462 38.1561C36.6754 38.1561 36.0352 37.5159 36.0352 36.7451C36.0352 35.9742 36.6754 35.334 37.4462 35.334C38.2171 35.334 38.8573 35.9742 38.8573 36.7451C38.8573 37.5159 38.2171 38.1561 37.4462 38.1561ZM36.2704 38.8485H38.6221V45.381H36.2704V38.8485Z" fill="#EDEBDE"/>
<path d="M31.757 45.5771C29.7189 45.5771 28.1641 44.0093 28.1641 42.1018C28.1641 40.2074 29.7189 38.6396 31.757 38.6396C33.7951 38.6396 35.3499 40.2074 35.3499 42.1018C35.3499 44.0093 33.7951 45.5771 31.757 45.5771ZM31.757 43.3691C32.5017 43.3691 32.9982 42.7942 32.9982 42.1149C32.9982 41.4224 32.5017 40.8476 31.757 40.8476C31.0123 40.8476 30.5158 41.4224 30.5158 42.1149C30.5158 42.7942 31.0123 43.3691 31.757 43.3691Z" fill="#EDEBDE"/>
<path d="M23.725 48.5822C22.1049 48.5822 20.9291 47.8636 20.3281 46.5833L22.2748 45.5381C22.4838 45.9823 22.8758 46.4396 23.6858 46.4396C24.535 46.4396 25.0968 45.9039 25.1621 44.9632C24.8486 45.2376 24.3521 45.4466 23.6074 45.4466C21.7914 45.4466 20.3281 44.0487 20.3281 42.0889C20.3281 40.1945 21.8828 38.6528 23.921 38.6528C26.0113 38.6528 27.5138 40.1031 27.5138 42.102V44.6889C27.5138 47.0405 25.8807 48.5822 23.725 48.5822ZM23.8818 43.2386C24.5873 43.2386 25.1229 42.7552 25.1229 42.0367C25.1229 41.3312 24.5873 40.8608 23.8818 40.8608C23.1893 40.8608 22.6406 41.3312 22.6406 42.0367C22.6406 42.7552 23.1893 43.2386 23.8818 43.2386Z" fill="#EDEBDE"/>
<path d="M16.339 45.5771C14.3009 45.5771 12.7461 44.0093 12.7461 42.1018C12.7461 40.2074 14.3009 38.6396 16.339 38.6396C18.3771 38.6396 19.9319 40.2074 19.9319 42.1018C19.9319 44.0093 18.3771 45.5771 16.339 45.5771ZM16.339 43.3691C17.0837 43.3691 17.5802 42.7942 17.5802 42.1149C17.5802 41.4224 17.0837 40.8476 16.339 40.8476C15.5943 40.8476 15.0978 41.4224 15.0978 42.1149C15.0978 42.7942 15.5943 43.3691 16.339 43.3691Z" fill="#EDEBDE"/>
<path d="M8.46389 36.5625V43.1603H12.3572V45.3813H8.13727C6.64786 45.3813 6.04688 44.5974 6.04688 43.3562V36.5625H8.46389Z" fill="#EDEBDE"/>
<path d="M34 7.96524C35.9477 7.61845 37.9527 7.4375 40.0001 7.4375C42.0474 7.4375 44.0524 7.61845 46 7.96523V31.2242H34V7.96524Z" fill="#AC2828"/>
<path d="M46.0007 51.6509H33.9995C33.9743 56.8688 33.0237 62.0414 31.1912 66.9282L28.7188 73.5212C32.2489 74.7625 36.0457 75.4376 40.0002 75.4376C43.9546 75.4376 47.7514 74.7625 51.2815 73.5212L48.809 66.9282C46.9765 62.0414 46.0259 56.8688 46.0007 51.6509Z" fill="#AC2828"/>
<path d="M46 7.96533C50.3408 8.73822 54.3967 10.3348 58 12.5878V31.2243H46V7.96533Z" fill="#306A9F"/>
<path d="M51.2808 73.5212C56.7382 71.6023 61.5584 68.3304 65.3386 64.108L64.7487 63.7326C60.6051 61.0957 58.0725 56.5523 58.001 51.6509H46C46.0252 56.8688 46.9759 62.0414 48.8085 66.9282L51.2808 73.5212Z" fill="#306A9F"/>
<path d="M22 12.5878C25.6033 10.3349 29.6591 8.73822 34 7.96533V31.2243H22V12.5878Z" fill="#DEB038"/>
<path d="M21.9979 51.6509H33.9989C33.9738 56.8465 33.0311 61.9972 31.2139 66.8656L28.7181 73.5212C23.2606 71.6023 18.4405 68.3304 14.6602 64.108L15.2501 63.7326C19.3937 61.0957 21.9264 56.5523 21.9979 51.6509Z" fill="#DEB038"/>
</g>
<defs>
<clipPath id="clip0_756_10775">
<rect width="80" height="81" fill="white" transform="translate(0 0.859375)"/>
</clipPath>
</defs>
</svg>
